<?xml version="1.0" encoding="UTF-8" standalone="no"?>
<!-- Created with Inkscape (http://www.inkscape.org/) -->

<svg
   version="1.1"
   id="svg25"
   width="960"
   height="960"
   viewBox="0 0 960 960"
   xmlns="http://www.w3.org/2000/svg"
   xmlns:svg="http://www.w3.org/2000/svg">
  <defs
     id="defs29" />
  <g
     id="g31">
    <path
       style="fill:#047732;fill-opacity:1;stroke-width:1.00069"
       d="m 101.15003,561.38556 c -13.755722,-3.11868 -25.489231,-11.30288 -34.68987,-24.19643 -5.295835,-7.42144 -7.064966,-12.60291 -7.957604,-23.3064 -1.529535,-18.34046 7.396458,-38.26031 24.179048,-53.9596 14.397365,-13.46803 28.183636,-20.18687 62.999286,-30.70316 16.67304,-5.0362 16.07138,-4.56864 12.48182,-9.69975 -4.34879,-6.21641 -6.61548,-16.44312 -5.23347,-23.6121 0.59806,-3.10235 1.23824,-6.54126 1.42264,-7.64202 0.29877,-1.78362 -1.08024,-2.36236 -12.67377,-5.31886 -14.87211,-3.79258 -32.96315,-5.26602 -40.24752,-3.27798 -3.761201,1.0265 -4.341801,1.59522 -5.313871,5.20521 -0.60021,2.22903 -2.57503,5.67183 -4.38848,7.65064 -2.93882,3.20681 -3.94687,3.64485 -9.274799,4.03023 -7.516257,0.54368 -13.014621,-2.00111 -17.428213,-8.06625 -2.765676,-3.80057 -3.010641,-4.71865 -2.434596,-9.12423 1.914273,-14.64036 12.055201,-21.47143 33.230478,-22.38451 17.173041,-0.74049 40.511261,3.60968 55.489541,10.34307 11.47009,5.15632 15.44508,4.56251 24.39104,-3.6436 1.65115,-1.51459 5.98826,-4.38213 9.63803,-6.3723 28.54681,-15.56618 62.20579,-16.67689 85.88784,-2.83421 5.45813,3.19039 6.58127,4.32301 7.21674,7.27763 2.63328,12.24343 -6.92,24.21218 -24.08194,30.17087 -14.92044,5.18044 -39.70673,7.32953 -55.75006,4.83379 -7.76688,-1.20823 -8.53777,-1.1703 -10.39613,0.51149 -4.08807,3.69965 -1.47638,13.75962 5.26964,20.29812 3.14222,3.04557 3.99353,3.28796 18.27351,5.20312 8.23775,1.10481 15.45457,2.01197 16.03735,2.01591 0.58278,0.004 1.91672,0.63391 2.96431,1.39993 1.63716,1.19712 1.71284,1.62392 0.53882,3.03854 -0.75124,0.90518 -2.12775,3.99352 -3.0589,6.86297 -2.33277,7.18866 -3.69681,7.70527 -18.49832,7.00591 -31.8309,-1.50401 -61.65673,9.67846 -83.13427,31.16919 -17.67326,17.68412 -24.80749,33.63561 -20.09145,44.92271 1.92751,4.61315 9.89749,11.27256 15.86202,13.25365 7.33877,2.43755 22.78722,1.52092 32.64158,-1.93679 18.40191,-6.4569 37.12441,-18.29149 47.55913,-30.0624 9.96075,-11.23623 3.62012,-10.35595 83.24641,-11.55715 37.94991,-0.57248 96.01857,-1.49213 129.04146,-2.04366 33.02289,-0.55153 91.3383,-1.45373 129.58982,-2.00489 120.23256,-1.73242 259.63833,-3.90192 287.01012,-4.46659 14.6971,-0.3032 26.09334,-0.16113 25.79502,0.32155 -0.29395,0.47561 -4.71205,3.33122 -9.81801,6.34581 -5.10597,3.01459 -22.37391,13.20939 -38.37322,22.6551 l -29.08965,17.17404 -18.94364,-0.0156 c -65.2086,-0.0538 -194.84248,-4.33571 -348.5755,-11.51375 -52.4033,-2.4468 -96.7953,-4.41332 -146.19794,-6.47642 -13.48434,-0.56311 -27.87383,-1.18358 -31.97663,-1.3788 -11.65549,-0.5546 -13.08006,0.15227 -19.0441,9.44968 -13.67955,21.3252 -37.87513,37.23337 -66.06042,43.43353 -10.72811,2.35997 -39.44208,2.97258 -48.03328,1.02479 z m 130.5905,-184.60418 c 12.42916,-3.17503 16.49992,-7.3387 9.50659,-9.72354 -8.34014,-2.84412 -18.7457,-0.88321 -33.44562,6.30277 -10.16161,4.96746 -8.30738,6.53705 6.92724,5.86379 4.95344,-0.2189 12.60874,-1.31826 17.01179,-2.44302 z m 630.43696,154.43829 c -1.10077,-0.23797 -3.00634,-0.64679 -4.2346,-0.9085 -7.08006,-1.5086 -13.21023,-12.7079 -11.35021,-20.73589 1.0868,-4.69072 5.22688,-10.2409 9.15381,-12.2716 3.63901,-1.8818 10.42748,-2.11571 15.24639,-0.52531 4.45084,1.4689 9.24748,6.78671 10.63796,11.79378 1.29272,4.65507 1.29314,4.90478 0.0161,9.50287 -2.34264,8.43506 -11.78039,14.80687 -19.46948,13.14465 z m 10.58565,-3.63081 c 5.37079,-3.61938 7.92718,-8.21027 7.92718,-14.23607 0,-6.02579 -2.55639,-10.61668 -7.92718,-14.23606 -2.43761,-1.64271 -4.82447,-2.27538 -8.58427,-2.27538 -15.06944,0 -22.35849,18.43382 -11.35237,28.70983 5.20792,4.86245 14.35732,5.79759 19.93664,2.03768 z m -16.89312,-11.47125 c -0.62682,-2.09217 -1.77887,-4.67807 -2.56009,-5.74646 -1.28538,-1.75787 -1.39587,-1.44688 -1.1622,3.27146 0.14202,2.8677 -0.13248,5.214 -0.61,5.214 -0.47752,0 -0.86822,-2.92703 -0.86822,-6.50451 0,-8.4483 2.14134,-8.91065 4.63473,-1.00069 0.95421,3.02709 2.02076,5.50381 2.37012,5.50381 0.34937,0 1.42443,-2.50373 2.38905,-5.56385 1.03038,-3.26877 2.24093,-5.40313 2.93465,-5.17422 1.51019,0.49832 2.20992,12.73946 0.72822,12.73946 -0.59073,0 -1.07227,-2.29355 -1.10302,-5.25364 l -0.0545,-5.25364 -2.01684,5.00346 c -2.74746,6.81601 -3.35974,7.17759 -4.68184,2.76482 z m 10.9788,-3.06982 -0.16821,-7.30985 4.65079,0.305 c 5.85643,0.38406 8.02065,2.97657 4.73747,5.67497 -2.08008,1.70959 -2.08475,1.78533 -0.25017,4.05095 1.02824,1.26983 1.86954,2.8118 1.86954,3.42661 0,0.61481 -1.38372,-0.56086 -3.07494,-2.6126 -4.09179,-4.96405 -6.68298,-4.95607 -7.20372,0.0222 -0.2159,2.06393 -0.46823,0.46316 -0.56076,-3.55726 z m 8.33768,-3.69777 c 0,-1.59037 -0.77065,-2.06517 -3.7526,-2.31197 -3.46075,-0.28642 -3.7526,-0.10662 -3.7526,2.31197 0,2.41859 0.29185,2.59839 3.7526,2.31197 2.98195,-0.2468 3.7526,-0.7216 3.7526,-2.31197 z M 276.17012,481.45579 c -1.98204,-0.70841 -5.64231,-2.75203 -8.13395,-4.54139 l -4.53024,-3.25338 -7.87715,3.25555 c -7.33147,3.03002 -8.70901,3.26098 -19.88547,3.33404 -14.54769,0.0951 -18.75939,-1.04702 -24.88016,-6.74696 -5.05686,-4.70917 -5.31987,-5.37122 -3.25539,-8.19455 1.33928,-1.83157 1.62254,-1.78444 8.59737,1.43046 6.72793,3.10111 7.76092,3.29411 15.3767,2.87291 6.56259,-0.36295 9.34274,-1.05209 14.17146,-3.51278 11.50658,-5.86368 11.01436,-4.85196 10.6754,-21.94257 -0.26165,-13.19249 -0.0127,-15.96099 2.21573,-24.63752 2.83272,-11.02952 8.41573,-22.9039 15.31388,-32.57078 15.04466,-21.08321 51.42171,-47.50621 67.39699,-48.9548 5.21374,-0.47276 5.91489,-0.27982 8.99984,2.47657 3.16161,2.82491 3.33998,3.34079 3.24374,9.3813 -0.2049,12.86088 -10.51066,36.4393 -26.44876,60.51179 -7.45715,11.26309 -12.16664,16.94342 -24.6185,29.69345 -10.09076,10.3324 -15.28196,16.36521 -15.06256,17.50452 0.56169,2.9166 5.74086,4.75577 13.39242,4.75577 6.01162,0 7.69205,-0.4064 11.1543,-2.69761 4.27386,-2.82831 4.83232,-3.94984 9.18201,-18.43985 4.89189,-16.29621 16.54073,-35.76494 28.44897,-47.5468 12.56174,-12.42843 25.54888,-17.99978 41.85276,-17.95441 6.90644,0.0192 10.57227,-0.43075 12.87731,-1.58065 3.53489,-1.76343 19.09121,-3.03897 23.5167,-1.92824 2.38402,0.59836 2.64331,1.04325 2.12329,3.64334 -0.32579,1.62897 -3.05302,8.24944 -6.06049,14.71218 -13.16938,28.29951 -20.60576,48.11135 -21.33446,56.83882 -0.55961,6.70223 0.92005,9.44941 5.08956,9.44941 4.7206,0 6.30927,-2.37811 6.99313,-10.46812 0.84725,-10.02299 2.27137,-15.58522 6.20384,-24.23058 4.21578,-9.26822 7.90092,-14.5556 14.85667,-21.31617 12.16669,-11.82525 23.01093,-16.29783 39.49129,-16.28774 l 10.35423,0.006 2.7207,-6.13118 c 1.49638,-3.37214 4.69175,-11.63265 7.10081,-18.35669 2.42746,-6.7754 5.07472,-12.52319 5.93825,-12.89325 2.50477,-1.0734 23.4481,-1.58986 24.87095,-0.61331 1.65759,1.13766 1.03836,2.81098 -17.85459,48.24769 -16.43348,39.52176 -18.29092,44.61865 -18.39504,50.47687 -0.0708,3.98787 -0.0116,4.05804 3.29585,3.90078 4.64521,-0.22087 9.95949,-5.60011 16.78218,-16.98733 5.31476,-8.87045 19.2415,-38.68376 24.71176,-52.90107 1.48236,-3.85268 3.02748,-7.50033 3.4336,-8.10592 1.75412,-2.61561 5.61815,-3.40206 16.71512,-3.40206 9.23372,0 11.71937,0.29757 12.16397,1.45619 0.30734,0.8009 -1.5221,5.79137 -4.06541,11.08994 -11.91522,24.82338 -25.14017,60.58189 -23.52311,63.6034 2.87203,5.36644 9.61026,6.40616 13.87542,2.14099 2.38608,-2.38608 2.86181,-3.86248 3.46631,-10.75745 1.29566,-14.77856 5.63865,-27.85501 12.62264,-38.00589 8.30316,-12.06822 22.09238,-24.00442 33.65726,-29.13431 8.22093,-3.6466 19.01367,-3.16041 28.51201,1.2844 l 6.5353,3.05824 3.42622,-2.89828 c 3.94378,-3.33611 10.21322,-6.8407 12.23748,-6.8407 0.7622,0 2.13505,0.8279 3.05078,1.83978 1.57266,1.73776 1.34995,2.27876 -4.01666,9.75676 -8.55895,11.9263 -10.74708,17.32556 -9.98322,24.63376 1.17355,11.228 -4.18592,27.68195 -14.0407,43.10587 -2.38464,3.73224 -4.3357,7.44731 -4.3357,8.25572 0,2.62097 8.87938,1.86327 15.02463,-1.28207 7.35945,-3.76682 7.80328,-4.77528 5.6531,-12.84462 l -1.77731,-6.67005 2.2322,-2.37608 c 3.01913,-3.21372 4.33777,-2.99805 6.8868,1.12636 1.19055,1.92634 2.80567,3.50243 3.58916,3.50243 2.96965,0 16.92041,-21.49053 28.75344,-44.29336 4.74338,-9.14074 5.63393,-11.70878 5.88651,-16.97446 0.29734,-6.19912 0.30054,-6.20498 3.80002,-6.97065 6.58783,-1.44138 30.66345,-2.1983 31.41173,-0.98756 0.38074,0.61604 -0.11095,2.59683 -1.09265,4.40173 -1.31199,2.41216 -1.76761,5.40274 -1.71962,11.28719 0.0593,7.27228 0.56006,9.24295 5.46692,21.51491 5.03134,12.58328 5.39512,14.05816 5.3068,21.51492 -0.28929,24.42083 -10.92661,38.31224 -33.66082,43.95805 -11.00338,2.73258 -16.90116,2.35548 -26.97112,-1.72449 -13.57804,-5.50133 -13.68223,-5.50481 -23.08598,-0.7715 -14.57325,7.33534 -26.40878,8.32482 -36.71078,3.06914 l -4.03683,-2.05944 -7.23833,3.24565 c -6.0399,2.70827 -8.48094,3.25152 -14.74353,3.28111 -8.72661,0.0412 -14.05222,-2.11058 -21.54341,-8.70458 -4.41108,-3.88279 -4.74973,-4.00299 -8.2894,-2.9424 -2.02973,0.60817 -7.72214,3.66372 -12.64979,6.79012 -13.9711,8.86407 -19.71609,8.58881 -28.44532,-1.3629 -4.3059,-4.90892 -5.11421,-5.4141 -7.73995,-4.83739 -1.61256,0.35418 -5.17375,2.41601 -7.91376,4.58185 -11.29706,8.92977 -16.00135,9.53516 -28.00289,3.60368 l -7.67322,-3.79231 -5.16708,2.23004 c -2.8419,1.22652 -7.6438,3.28609 -10.67089,4.57681 -7.29321,3.10975 -12.77103,2.97276 -22.96234,-0.57424 l -8.45228,-2.94175 -5.55743,3.36115 c -10.64971,6.44097 -16.92428,6.75765 -28.64,1.4455 -7.77532,-3.5255 -10.13298,-3.59588 -16.27066,-0.48569 -13.06739,6.62176 -24.36044,7.15288 -37.02933,1.74152 l -7.33471,-3.13293 -9.17673,4.35042 c -17.92492,8.49767 -28.60055,10.54858 -37.79779,7.26138 z m 180.35967,-34.78574 c 6.82312,-6.97995 14.88363,-22.91313 16.72957,-33.06928 1.13093,-6.22228 0.70617,-7.64448 -2.52541,-8.45555 -6.16422,-1.54713 -16.61297,7.3543 -22.37747,19.06367 -3.14699,6.39244 -4.75726,15.31636 -3.59752,19.93709 1.57425,6.27231 6.97477,7.43037 11.77083,2.52407 z m -93.45886,-0.98003 c 2.68186,-1.29826 5.86076,-4.10481 8.21757,-7.25503 4.07044,-5.44069 18.06127,-32.61952 18.06127,-35.08609 0,-2.49158 -1.86558,-2.78009 -6.98386,-1.08007 -9.83622,3.26708 -31.93898,27.34369 -33.56197,36.55918 -0.48048,2.72827 -0.13505,4.14782 1.52193,6.25434 2.66014,3.38181 6.62404,3.5708 12.74506,0.60767 z m 231.10423,-1.97429 c 5.54716,-2.68533 12.78714,-10.83842 17.68852,-19.91941 3.82775,-7.09179 6.95085,-16.3779 5.87131,-17.45744 -0.30836,-0.30835 -2.89074,-0.56065 -5.73864,-0.56065 -2.8479,0 -7.31969,-0.64455 -9.93732,-1.43234 -2.61764,-0.78779 -5.37696,-1.19535 -6.13184,-0.90567 -4.32988,1.66154 -13.21087,21.05509 -14.12508,30.84513 -1.02369,10.96242 2.95076,13.99163 12.37305,9.43038 z m 103.38823,-1.71755 c 7.27927,-3.56663 10.14114,-8.5088 10.19361,-17.60331 0.0361,-6.2553 -1.44388,-12.84785 -3.45193,-15.37672 -1.36179,-1.71498 -2.39122,-0.76491 -10.47928,9.67121 -3.66738,4.73208 -9.05499,11.26982 -11.97247,14.5283 -5.8444,6.52754 -6.76746,10.03489 -3.05293,11.6003 3.56534,1.50256 12.76227,0.12041 18.763,-2.81978 z M 289.43236,428.10789 c 9.27262,-11.34779 21.97103,-30.94352 28.29678,-43.66655 10.15842,-20.4317 8.44674,-21.81394 -7.34583,-5.932 -15.46994,15.55748 -25.08056,31.03356 -29.1481,46.93747 -2.43273,9.51189 -2.43473,10.35223 -0.0246,10.35223 1.20254,0 4.32036,-2.91661 8.22178,-7.69115 z m 456.20822,-9.12278 c -3.85552,-3.85552 -4.07676,-8.26428 -0.58972,-11.75132 1.35093,-1.35093 3.17454,-2.45625 4.05246,-2.45625 2.71637,0 7.32671,2.87792 7.99786,4.99249 0.94324,2.9719 2.86149,2.46788 6.67574,-1.75403 5.44317,-6.02494 23.84889,-34.82383 23.84889,-37.31566 0,-1.56035 -11.66187,-1.06949 -16.02004,0.6743 -4.41875,1.76804 -5.99521,3.83614 -5.99521,7.86491 0,3.74559 -4.14899,7.52551 -8.26028,7.52551 -6.83191,0 -7.82732,-5.76399 -2.18461,-12.65016 6.74251,-8.22836 18.02788,-12.75594 34.84753,-13.9805 5.72831,-0.41705 10.5015,-1.35709 12.83332,-2.52743 4.09706,-2.0563 5.63057,-2.25338 7.63731,-0.98151 1.0983,0.6961 1.11041,1.22387 0.0664,2.89554 -1.12404,1.79987 -0.88776,2.48724 1.97618,5.7491 6.01373,6.84926 6.6398,12.09205 2.17929,18.24961 l -2.9409,4.05979 2.37102,0.59508 c 1.30405,0.3273 4.0055,2.13662 6.00323,4.02072 2.05022,1.9336 3.77413,2.91356 3.95803,2.24995 0.1792,-0.64663 0.8132,-2.98129 1.4089,-5.18814 1.42506,-5.27928 6.34003,-11.84487 11.5509,-15.43004 4.51624,-3.10725 11.94637,-5.54401 14.23125,-4.66722 0.77526,0.29749 4.85728,0.10376 9.07117,-0.4305 4.21389,-0.53427 7.8445,-0.78852 8.06803,-0.56498 0.22352,0.22352 -1.18906,4.66617 -3.13907,9.87255 -4.59805,12.27639 -5.35159,16.85167 -3.13972,19.06353 0.92008,0.92011 2.51968,1.67293 3.55464,1.67293 4.13708,0 13.9864,-13.87993 13.9864,-19.71 0,-1.26789 -0.90062,-3.20588 -2.00138,-4.30665 -2.71959,-2.71958 -2.60772,-7.46737 0.22266,-9.44985 3.80599,-2.66581 8.57511,-1.99323 12.01496,1.69448 2.86875,3.07545 3.50206,3.27945 11.64956,3.7526 7.39314,0.42934 8.66641,0.76549 8.97172,2.36861 0.19571,1.02755 -1.71375,6.26813 -4.24322,11.64572 -4.55777,9.68972 -5.85934,16.00648 -3.29814,16.00648 2.00467,0 3.70257,-2.1568 3.70257,-4.70326 0,-1.76047 0.56301,-2.3016 2.39467,-2.3016 1.31707,0 2.67196,0.7226 3.01087,1.60579 0.99211,2.5854 -1.55104,9.39616 -4.67505,12.52017 -2.50372,2.50372 -3.63753,2.88534 -8.56284,2.88209 -7.54743,-0.005 -12.18152,-2.68164 -12.18152,-7.0361 0,-3.59182 1.19318,-6.05508 7.41309,-15.3039 5.78149,-8.59694 5.82855,-9.67845 0.42108,-9.67845 -5.60934,0 -7.25638,1.76066 -10.35724,11.07169 -3.14642,9.44784 -5.62023,13.30435 -11.32568,17.65605 -4.95634,3.78032 -8.44212,4.14297 -16.71247,1.73871 -4.84059,-1.40719 -5.63883,-1.40719 -8.36005,0 -4.51612,2.33537 -14.78588,2.05467 -19.00838,-0.51957 l -3.39184,-2.06783 -2.85407,3.12482 c -7.40369,8.106 -27.17087,10.66526 -36.09348,4.67304 -4.56771,-3.06758 -5.1379,-8.46366 -1.21997,-11.5455 3.98947,-3.13812 7.05085,-2.75236 9.01621,1.1361 2.31732,4.58484 5.43987,7.75538 7.63797,7.75538 3.33729,0 7.46687,-2.82889 8.78897,-6.02071 1.1384,-2.74834 1.05866,-3.42789 -0.6807,-5.80118 -2.95368,-4.03013 -8.01503,-6.18727 -14.52159,-6.18905 -7.8174,-0.002 -9.83452,0.99515 -13.52156,6.68522 -6.94769,10.72212 -18.84362,19.28934 -29.02916,20.90624 -3.79131,0.60185 -4.51134,0.36587 -7.25503,-2.37781 z m 99.81721,-22.49178 c 2.20019,-2.342 4.42309,-7.75457 5.52839,-13.46116 1.58432,-8.17976 -8.94245,-4.70339 -12.25834,4.04821 -1.18664,3.1319 -1.4356,9.99049 -0.40021,11.02587 1.40371,1.40371 5.07674,0.57283 7.13016,-1.61292 z m -46.50839,-12.8554 c 5.94899,-3.06392 8.55645,-8.61475 5.48807,-11.68314 -1.85553,-1.85552 -3.44141,-1.45685 -7.14694,1.79665 -4.35649,3.82505 -6.60954,8.798 -4.57077,10.08864 1.89733,1.20109 3.61318,1.14541 6.22964,-0.20215 z M 663.53981,363.71899 c 0,-0.66369 1.35094,-2.74535 3.00208,-4.62589 3.66359,-4.1726 3.74315,-6.11582 0.38102,-9.30677 -7.04754,-6.68874 -5.41429,-17.05921 3.25728,-20.68242 4.24597,-1.77408 6.80514,-1.7414 10.76449,0.13744 4.59637,2.18112 6.61178,6.20216 6.61178,13.19151 0,11.31987 -7.85177,19.99477 -19.7637,21.83561 -3.0156,0.46603 -4.25295,0.30617 -4.25295,-0.54948 z m -90.88537,-12.18289 -9.32885,-8.00965 -10.0313,6.67888 c -5.51722,3.67338 -10.21119,6.499 -10.43105,6.27915 -0.21985,-0.21986 1.38151,-4.5673 3.55859,-9.66098 2.17707,-5.09367 4.22231,-10.093 4.54498,-11.10963 0.45565,-1.43565 -1.5535,-3.56976 -8.9975,-9.55708 -5.27127,-4.23977 -9.45721,-7.80737 -9.30208,-7.92801 0.15514,-0.12064 4.33488,0.18481 9.28831,0.67878 16.04382,1.59989 15.07238,2.14139 20.00254,-11.14957 2.88601,-7.78022 4.42697,-10.83291 4.79884,-9.50659 0.30127,1.07451 1.57501,6.45678 2.83053,11.9606 1.25552,5.50381 2.42686,10.20219 2.60296,10.44084 0.1761,0.23865 6.02623,0.68896 13.0003,1.00069 l 12.68012,0.56679 -10.69568,6.44456 c -6.36936,3.83779 -10.68393,7.07597 -10.66663,8.00555 0.016,0.85854 1.35418,6.26449 2.97376,12.0132 1.61959,5.74872 2.84487,10.54445 2.72286,10.65717 -0.12203,0.11273 -4.41983,-3.39939 -9.5507,-7.8047 z"
       id="path193" />
  </g>
</svg>
