<?xml version="1.0" encoding="UTF-8" standalone="no"?>
<!-- Created with Inkscape (http://www.inkscape.org/) -->

<svg
   version="1.1"
   id="svg4908"
   width="175"
   height="196"
   viewBox="0 0 175 196"
   xmlns="http://www.w3.org/2000/svg"
   xmlns:svg="http://www.w3.org/2000/svg">
  <defs
     id="defs4912" />
  <g
     id="g4914">
    <path
       id="path4924"
       style="fill:#000000"
       d="m 63.455078,43.34375 c -0.25139,-0.100637 -0.840802,0.414907 -1.521484,1.386719 -1.278459,1.825253 -1.758691,5.560012 -2.132813,16.580078 -0.265585,7.823152 -0.141558,16.876276 0.275391,20.117187 0.526007,4.088647 0.974319,5.295879 1.464844,3.945313 0.672465,-1.851512 0.735126,-1.840325 1.28125,0.248047 0.315763,1.207493 0.166334,2.447852 -0.332032,2.755859 -0.498361,0.308007 -0.90625,1.032995 -0.90625,1.609375 0,0.57638 0.652235,0.796068 1.449219,0.490234 1.019215,-0.391106 1.284168,-0.05053 0.890625,1.144532 -0.307736,0.934484 1.204439,-1.225797 3.361328,-4.800782 2.527132,-4.188644 3.545168,-6.761142 2.861328,-7.232421 -0.583647,-0.402239 -1.60773,-1.51e-4 -2.27539,0.892578 -0.667665,0.892729 -1.393745,2.120965 -1.613282,2.730469 -0.219532,0.6095 -0.791305,0.739777 -1.271484,0.289062 -0.480174,-0.450715 -0.881072,-7.650755 -0.888672,-16 -0.0076,-8.349245 0.334294,-17.125944 0.759766,-19.503906 0.515091,-2.878871 0.431554,-4.112633 -0.25,-3.691406 -0.562972,0.347931 -1.023438,0.0564 -1.023438,-0.648438 0,-0.176209 -0.04511,-0.278954 -0.128906,-0.3125 z m -46.427734,0.875 c 0.106084,0.09884 0.225374,0.186807 0.367187,0.25 0.223776,0.09972 0.375899,0.163571 0.572266,0.25 9.84e-4,-0.0046 0.0029,-0.009 0.0039,-0.01367 -0.319817,-0.153225 -0.634647,-0.314322 -0.943359,-0.486328 z m 77.24414,3.865234 c -1.142912,-0.04952 -2.3338,0.0088 -3.296875,0.189454 -1.92615,0.361345 -4.375994,1.532244 -5.445312,2.601562 -1.069318,1.069318 -1.945313,2.411118 -1.945313,2.980469 0,0.681139 0.728914,0.645735 2.128907,-0.103516 2.091831,-1.119515 2.11702,-1.031627 1.52539,5.214844 -0.330966,3.494413 -0.870148,10.974906 -1.197265,16.625 -0.475366,8.210577 -0.329475,10.218155 0.724609,10 0.725365,-0.150124 1.603745,-1.39649 1.951172,-2.771485 0.347427,-1.37499 0.68493,-5.105079 0.75,-8.287109 l 0.117187,-5.785156 4.25,-1.855469 c 2.33749,-1.020197 5.262523,-2.820281 6.499996,-4.001953 1.43007,-1.365559 2.24533,-3.318483 2.23633,-5.359375 -0.008,-1.766065 -0.57061,-4.301255 -1.25,-5.632812 -0.67939,-1.331562 -2.497053,-2.839963 -4.03906,-3.351563 -0.771004,-0.255802 -1.866849,-0.413375 -3.009766,-0.462891 z m 58.523436,0.101563 c 0.0883,0.114766 0.17216,0.214107 0.25977,0.320312 0.0706,-0.03572 0.14113,-0.07165 0.21093,-0.109375 -0.17279,-0.08557 -0.3285,-0.15422 -0.4707,-0.210937 z m -62.230467,3.634765 c 0.53887,0 2.78888,0.722708 5,1.607422 2.21112,0.884714 4.019531,2.174126 4.019531,2.865235 0,0.691104 -0.852085,2.328958 -1.894531,3.640625 -1.042446,1.311663 -3.292461,3.197816 -5,4.191406 l -3.105469,1.806641 V 58.875 c 0,-3.940505 0.433352,-7.054687 0.980469,-7.054688 z m -14.642578,9 c -1.770152,0 -3.540615,0.518448 -3.933594,1.154297 -0.509956,0.825134 0.177821,0.97811 2.402344,0.533203 2.144337,-0.428864 3.597641,-0.142593 4.65625,0.916016 0.846274,0.846274 1.537109,1.944446 1.537109,2.441406 0,0.496964 -1.418786,0.620542 -3.154296,0.273438 -2.451561,-0.490314 -2.975006,-0.338547 -2.345704,0.679687 0.551242,0.891925 0.420373,1.068727 -0.408203,0.556641 -0.6844,-0.422986 -2.065464,0.01657 -3.154297,1.001953 -1.281374,1.159631 -1.9375,3.064551 -1.9375,5.628906 0,2.412038 0.533369,4.079559 1.410157,4.416016 0.774996,0.297396 3.025011,0.0961 5,-0.449219 2.900292,-0.800808 3.589843,-0.718676 3.589843,0.427735 0,0.780661 0.398106,1.419921 0.882813,1.419921 0.484702,10e-7 1.384707,-1.999818 2,-4.443359 0.615288,-2.443536 1.117187,-6.018107 1.117187,-7.943359 0,-2.483665 -0.645738,-3.952126 -2.222656,-5.056641 -1.222374,-0.856182 -3.669301,-1.556641 -5.439453,-1.556641 z m 30.546875,3.371094 c -0.35491,0.01457 -0.68241,0.06323 -0.95703,0.150391 -1.88169,0.597221 -1.83803,0.760828 0.76758,2.806641 1.52112,1.194309 3.03051,2.086535 3.35351,1.982421 0.323,-0.104115 0.39352,1.133395 0.15625,2.75 -0.23727,1.616609 -0.71828,2.92374 -1.06836,2.90625 -0.35007,-0.01749 -1.5105,-0.692492 -2.57812,-1.5 -1.06762,-0.807504 -3.11938,-1.466796 -4.56055,-1.466797 -1.44117,10e-7 -3.599826,0.912123 -4.796874,2.027344 -1.197046,1.115218 -2.447977,3.107657 -2.779297,4.427735 -0.331312,1.320074 -0.323363,3.27932 0.01758,4.353515 0.365916,1.152913 1.8764,2.20419 3.6875,2.566406 1.687438,0.337486 4.149422,0.341249 5.470702,0.0098 1.77576,-0.445683 2.40234,-0.1911 2.40234,0.97461 0,1.041354 0.54993,1.366572 1.61719,0.957031 0.88893,-0.341115 2.68454,-2.914642 3.99024,-5.71875 1.30565,-2.804108 2.37018,-6.897667 2.36718,-9.097657 -0.003,-2.199985 -0.33615,-4.496404 -0.74023,-5.101562 -0.40408,-0.605158 -1.76326,-1.641881 -3.02148,-2.304688 -0.94371,-0.497097 -2.26339,-0.766381 -3.32813,-0.722656 z m -29.900391,4.853516 c 0.0949,-0.01021 0.181169,-0.0041 0.257813,0.02148 0.613147,0.204384 1.578363,1.106341 2.144531,2.003906 0.770766,1.221921 0.560897,2.150075 -0.833984,3.691407 -1.024617,1.13219 -2.186573,2.058594 -2.583985,2.058593 -0.397407,10e-7 -1.282444,-0.673851 -1.964843,-1.496093 -1.000765,-1.205849 -0.915302,-1.991906 0.441406,-4.0625 0.80947,-1.23541 1.874746,-2.145344 2.539062,-2.216797 z m 25.302731,4.927734 c 0.36696,-0.01837 0.71335,-0.0098 1.01563,0.0332 1.32323,0.188269 2.31495,1.133976 2.49219,2.373047 0.16196,1.132228 -0.65789,3.269743 -1.82227,4.75 -1.16438,1.480261 -2.50187,2.691407 -2.97266,2.691406 -0.4708,10e-7 -1.56345,-0.707984 -2.42773,-1.572265 -0.864281,-0.86428 -1.572266,-2.648486 -1.572266,-3.964844 0,-1.389981 0.861255,-2.854529 2.052735,-3.492187 0.846276,-0.452915 2.133491,-0.763255 3.234371,-0.81836 z m -32.132809,13.50586 c -0.55842,0.0056 -1.192832,0.433557 -1.591797,1.136718 -0.531949,0.937549 -1.146114,7.105122 -1.363281,13.705076 -0.290445,8.82695 -0.0056,13.11391 1.074219,16.21289 0.807377,2.31717 1.226971,4.45467 0.93164,4.75 -0.295326,0.29534 -2.937774,0.53711 -5.871093,0.53711 -2.974751,0 -5.333985,0.45187 -5.333985,1.02344 0,0.56361 1.155607,1.46361 2.566407,2 1.410794,0.53639 6.585829,0.97656 11.5,0.97656 8.52104,0 8.933593,0.10122 8.933593,2.18555 0,1.20205 0.841937,3.11455 1.869141,4.25 1.027204,1.13545 2.603086,3.22306 3.501953,4.64062 l 1.632813,2.57813 -13.501953,-0.45899 c -8.439501,-0.28618 -13.501954,-0.0914 -13.501954,0.51954 0,0.54024 5.032205,1.26821 11.25,1.62695 6.18747,0.35698 15.075025,1.51607 19.75,2.57422 4.67498,1.05815 9.625046,2.35049 10.999996,2.87305 1.375,0.52251 3.62505,0.94214 5,0.93164 2.15222,-0.0164 1.96253,-0.26147 -1.37304,-1.75782 l -3.875,-1.73828 4.26953,-4.63281 c 2.34897,-2.54832 4.03636,-4.86795 3.75,-5.1543 -0.28635,-0.28636 -1.94521,0.67854 -3.6875,2.14453 -1.74229,1.46605 -3.32556,2.49696 -3.51953,2.29102 -0.19397,-0.20594 -1.07619,-2.11648 -1.95899,-4.24609 -0.88281,-2.12967 -1.605466,-4.02161 -1.605466,-4.20313 0,-0.18153 2.137546,0.31859 4.749996,1.11133 2.6125,0.79274 6.30949,1.44712 8.21485,1.45312 2.95045,0.009 3.2471,-0.18656 2,-1.32031 -0.80536,-0.73216 -4.16485,-2.49745 -7.46485,-3.92383 -3.29995,-1.42639 -9.467734,-3.30346 -13.707027,-4.16992 -4.239293,-0.86646 -9.414323,-1.57994 -11.5,-1.58594 -2.085677,-0.006 -5.486892,-0.29235 -7.558594,-0.63476 l -3.767578,-0.6211 2.523438,-4.30468 c 1.42332,-2.42873 2.10552,-4.56133 1.566406,-4.89453 -0.525455,-0.32475 -1.520812,0.4346 -2.210937,1.6875 -1.209247,2.1953 -1.281201,2.13415 -1.992188,-1.72071 -0.405769,-2.2 -0.744253,-6.7 -0.751953,-10 -0.0077,-3.29995 0.376567,-8.025177 0.853515,-10.498044 0.606667,-3.14541 0.522677,-4.70748 -0.279296,-5.203125 -0.157626,-0.09742 -0.335343,-0.142502 -0.521485,-0.140625 z m 27.169922,0.341796 c -1.776733,10e-7 -4.325795,0.498726 -5.666015,1.109376 -1.340225,0.610644 -2.926538,2.185654 -3.525391,3.5 -0.598859,1.31434 -0.738756,2.390625 -0.310547,2.390624 0.428208,0 1.318516,-0.541176 1.978516,-1.201171 0.933328,-0.933328 1.199218,2.252587 1.199218,14.333979 0,13.14069 0.231054,15.53321 1.5,15.53321 1.210389,0 1.5,-1.57116 1.5,-8.13477 v -8.13281 l 4.455078,-2.16406 c 2.449528,-1.19007 5.199188,-3.30326 6.111328,-4.69531 1.16547,-1.778749 1.46408,-3.56528 1.00586,-6.007818 -0.35862,-1.911609 -1.63361,-4.163103 -2.83398,-5.003906 -1.20042,-0.840803 -3.637335,-1.527344 -5.414067,-1.527344 z m -1.865234,4 c 1.469991,10e-7 3.656086,0.510271 4.857422,1.134766 1.201339,0.6245 2.329749,1.256862 2.507809,1.40625 0.17805,0.149389 -0.36178,1.59737 -1.19922,3.216797 -0.83739,1.619427 -2.653349,3.685125 -4.037105,4.591795 -1.383755,0.90668 -2.758388,1.65039 -3.052734,1.65039 -0.294351,0 -0.535157,-1.9899 -0.535157,-4.419919 0,-2.430006 -0.271629,-5.130021 -0.605468,-6 -0.46019,-1.199231 0.03812,-1.580078 2.064453,-1.580079 z m -12.650391,4 c -1.544868,0 -2.808594,0.47614 -2.808594,1.058594 0,0.582458 -0.355192,0.837711 -0.791015,0.56836 -0.435828,-0.269356 -0.862886,0.4267 -0.947266,1.546875 -0.147278,1.955169 -0.07498,1.965869 1.792969,0.27539 1.858724,-1.682121 2.034846,-1.678162 3.945312,0.05078 1.099995,0.995488 2,2.189538 2,2.654298 0,0.46476 -1.31703,0.8457 -2.927734,0.8457 -1.610705,0 -3.607296,0.67761 -4.435547,1.50586 -0.82825,0.82826 -1.783501,2.38497 -2.125,3.46094 -0.3415,1.07597 -0.105795,2.92217 0.525391,4.10156 0.874312,1.6337 1.781789,2.01618 3.80664,1.60742 1.461778,-0.29509 3.449236,-0.84399 4.417969,-1.21875 1.341273,-0.51887 1.613442,-0.29536 1.142578,0.93164 -0.340076,0.88624 -0.177985,1.61133 0.359375,1.61133 0.537365,0 1.545018,-2.02786 2.238282,-4.5039 0.693259,-2.4761 0.986571,-6.1865 0.652343,-8.2461 -0.334222,-2.0596 -1.37959,-4.308744 -2.322265,-4.998044 -0.942675,-0.689304 -2.978564,-1.251954 -4.523438,-1.251954 z m 0.498047,8.521488 c 0.516382,-0.0132 0.950061,0.30357 1.589844,0.94336 1.169883,1.16989 1.229156,1.96481 0.302734,3.99804 -0.635744,1.39532 -1.98965,2.53516 -3.009765,2.53516 -1.020119,0 -2.154819,-0.29935 -2.521485,-0.66602 -0.366667,-0.36666 -0.667969,-1.46622 -0.667969,-2.44336 0,-0.9771 0.99904,-2.47574 2.21875,-3.33007 0.972012,-0.68081 1.571509,-1.02397 2.087891,-1.03711 z m 21.718755,1.65625 c -0.3021,-0.0174 -0.55808,-0.009 -0.74805,0.0312 -0.75987,0.15969 -1.35577,0.72733 -1.32227,1.26172 0.0335,0.5344 1.06971,0.9844 2.30274,1 1.54101,0.0195 2.34036,0.71939 2.55664,2.24023 0.28398,1.99694 -0.0317,2.16841 -3.25391,1.75586 -2.6557,-0.34002 -4.08073,0.0534 -5.564452,1.53711 -1.097007,1.09702 -1.996094,2.84039 -1.996094,3.87305 0,1.0326 0.677612,2.43918 1.503907,3.125 0.889971,0.73858 2.720029,1.00248 4.490229,0.64843 1.64373,-0.32875 2.93911,-0.27277 2.87891,0.125 -0.0601,0.39776 -0.0561,1.11587 0.01,1.59571 0.0651,0.47985 0.78587,0.31953 1.60156,-0.35743 0.81568,-0.67691 2.23245,-3.60975 3.14844,-6.51562 0.91599,-2.90587 1.3836,-6.01348 1.04101,-6.90625 -0.34259,-0.89277 -1.83509,-2.0845 -3.31836,-2.64844 -1.11245,-0.42295 -2.42384,-0.71353 -3.33007,-0.76562 z m -1.56446,8.01953 c 0.30007,-0.0365 0.59679,-0.0375 0.87305,0.004 1.10504,0.16405 2.17768,0.80803 2.38281,1.43164 0.20514,0.62366 -0.35335,1.86121 -1.24219,2.75 -0.88883,0.88884 -2.21063,1.61719 -2.9375,1.61719 -0.72687,0 -1.60393,-0.73224 -1.94726,-1.62695 -0.343353,-0.89471 -0.0922,-2.26701 0.55664,-3.04883 0.48664,-0.58637 1.41425,-1.01734 2.31445,-1.12695 z m -18.064451,15.05078 c 0.860932,0.0205 2.047275,0.12702 3.353515,0.31641 2.61249,0.37878 5.049725,0.85957 5.416016,1.06835 0.366292,0.20882 -0.680083,1.72695 -2.326172,3.37305 -1.646089,1.6461 -3.070826,2.98747 -3.166016,2.98047 -0.09519,-0.007 -1.186333,-1.57586 -2.423828,-3.48633 -1.23749,-1.91048 -2.25,-3.73241 -2.25,-4.04883 0,-0.1582 0.535552,-0.22367 1.396485,-0.20312 z m -6.869141,0.11328 c -0.593321,0.18797 -2.512007,1.6456 -4.628906,3.54102 l -4.398438,3.9375 -3.730468,-3.60547 c -2.052393,-1.98311 -4.049211,-3.28673 -4.4375,-2.89844 -0.388293,0.3883 1.259386,2.70804 3.662109,5.15625 3.024264,3.08151 4.725545,4.15533 5.529297,3.48828 0.638564,-0.52997 1.407296,-0.71771 1.708984,-0.41601 0.301693,0.30169 1.96906,-1.55465 3.705078,-4.12696 1.736023,-2.57226 2.978767,-4.85717 2.759766,-5.07617 -0.02738,-0.0274 -0.08516,-0.0268 -0.169922,0 z m 19.378906,1.63867 c 0.49851,0 0.689632,0.83122 0.423828,1.84766 -0.2658,1.01644 0.22646,3.54536 1.09375,5.62109 0.867291,2.07573 1.576168,4.39452 1.576168,5.15235 0,0.75784 -0.56249,1.32391 -1.249996,1.25781 -0.687495,-0.066 -3.16251,-0.58049 -5.5,-1.14258 -2.337485,-0.5621 -4.25,-1.46512 -4.25,-2.00781 0,-0.5427 1.57501,-2.73059 3.5,-4.86133 1.92499,-2.13074 3.5,-4.32268 3.5,-4.87109 0,-0.54842 0.407746,-0.9961 0.90625,-0.9961 z m -18.40625,4 c -0.760076,0 -1.673102,0.47054 -2.029296,1.04688 -0.356194,0.57633 -0.396335,1.70133 -0.08984,2.5 0.306471,0.79866 0.96688,1.45312 1.466797,1.45312 0.499913,0 1.452498,-0.65612 2.117187,-1.45703 0.664689,-0.8009 0.917309,-1.9259 0.5625,-2.5 -0.354809,-0.57409 -1.267263,-1.04297 -2.027344,-1.04297 z m 15.628907,3 c -1.105789,0 -2.301446,0.46888 -2.65625,1.04297 -0.354809,0.5741 -0.0881,1.71402 0.591797,2.5332 0.679892,0.81922 1.730989,1.32586 2.335937,1.12696 0.604948,-0.1989 1.244169,-1.33879 1.419922,-2.53321 0.237604,-1.6147 -0.196474,-2.16992 -1.691406,-2.16992 z m -26.794922,8 c -1.912563,0 -2.395074,0.39275 -1.939453,1.58008 0.333839,0.86998 0.637121,2.78248 0.675781,4.25 0.05706,2.16631 0.206783,2.32175 0.796875,0.82227 0.659949,-1.67706 0.849299,-1.70006 2.052734,-0.25 0.728943,0.87832 2.823981,1.59765 4.654297,1.59765 2.114421,0 3.698086,-0.6381 4.345703,-1.75 0.910282,-1.56287 1.023622,-1.5094 1.050782,0.5 0.01672,1.2375 0.507389,2.25 1.089843,2.25 0.582459,0 0.779372,-0.45 0.439453,-1 -0.339912,-0.55 -0.349021,-1.4349 -0.02148,-1.96484 0.332869,-0.53859 1.453467,-0.10513 2.541016,0.98242 1.548279,1.54829 2.459147,1.7501 4.46289,0.98828 1.798566,-0.68382 2.517578,-0.62416 2.517578,0.20899 0,0.64151 0.661246,0.29222 1.46875,-0.77539 1.277836,-1.68946 1.47232,-1.72228 1.5,-0.25782 0.01749,0.92544 0.928365,1.9669 2.023438,2.31446 1.095074,0.3476 2.406121,0.37462 2.914062,0.0605 0.507946,-0.31393 1.151138,-0.005 1.429688,0.68555 0.305538,0.75786 0.538338,0.56356 0.585938,-0.49219 0.0434,-0.9625 0.55941,-1.75 1.14648,-1.75 0.61231,0 0.79578,0.85269 0.43164,2 -0.45047,1.41932 -0.17871,2 0.9336,2 0.86207,0 1.5664,0.45 1.5664,1 0,0.55 0.5263,1 1.16797,1 0.64166,0 0.86972,-0.29631 0.50782,-0.6582 -0.36189,-0.3619 -0.15086,-1.26905 0.46875,-2.01563 0.86363,-1.04063 0.66541,-1.76197 -0.85157,-3.09179 -1.0883,-0.95403 -1.79573,-2.40938 -1.57226,-3.23438 0.274,-1.01157 -0.0896,-0.88755 -1.11524,0.38281 -1.43858,1.78184 -1.7082,1.79537 -4.964841,0.25 -1.893657,-0.89856 -4.836646,-1.63281 -6.541015,-1.63281 -2.254554,0 -3.120295,0.4768 -3.177735,1.75 -0.06288,1.39393 -0.195578,1.4448 -0.65039,0.25 -0.314049,-0.825 -1.064896,-1.84375 -1.669922,-2.26172 -0.605031,-0.41797 -2.151968,-0.5115 -3.435547,-0.20898 -1.475378,0.34772 -2.095824,0.16724 -1.689453,-0.49023 0.353543,-0.57204 0.166443,-1.03907 -0.416016,-1.03907 -0.582454,0 -1.060547,0.35281 -1.060547,0.78516 0,0.43235 -1.68751,0.71691 -3.75,0.63281 -2.06249,-0.0841 -4.425,0.35062 -5.25,0.96484 -1.294087,0.96354 -1.316744,0.88215 -0.164062,-0.58984 0.734848,-0.9384 1.046215,-2.1759 0.691406,-2.75 -0.354809,-0.57409 -1.791984,-1.04297 -3.193359,-1.04297 z m 0.666015,1 c 0.55,0 1,0.45 1,1 0,0.55 -0.45,1 -1,1 -0.549995,0 -1,-0.45 -1,-1 0,-0.55 0.450005,-1 1,-1 z m 5.691407,4.01367 c 0.655036,-0.008 1.468679,0.43633 1.808593,0.98633 0.339917,0.55 0.480506,0.99238 0.310547,0.98438 -0.169959,-0.008 -0.985547,-0.45122 -1.810547,-0.98438 -0.901287,-0.58246 -1.024209,-0.97733 -0.308593,-0.98633 z m -1.199219,4.65235 c -0.07355,0.009 -0.150476,0.11066 -0.230469,0.31445 -0.319971,0.81518 -1.185273,2.08566 -1.921875,2.82227 -0.736602,0.73661 -1.339844,2.28151 -1.339844,3.43359 0,1.15208 0.787505,2.89319 1.75,3.86914 0.962495,0.97595 1.862505,1.80129 2,1.83399 0.1375,0.0327 0.25,-1.09259 0.25,-2.5 0,-1.40746 -0.353013,-2.33934 -0.785156,-2.07227 -0.432138,0.26708 -0.785156,-0.34795 -0.785156,-1.36719 0,-1.01924 0.353018,-1.63622 0.785156,-1.36914 0.432143,0.26707 0.750451,-1.00235 0.707031,-2.82226 -0.03257,-1.36491 -0.209042,-2.16994 -0.429687,-2.14258 z m 21.068359,1.33398 c -1.342531,0 -2.701149,0.4177 -3.017578,0.92969 -0.316431,0.512 -0.09544,1.22787 0.490235,1.58984 0.744563,0.46017 0.72303,1.0695 -0.07031,2.02539 -0.624092,0.75194 -0.906326,1.73547 -0.626953,2.1875 0.279373,0.45204 2.546601,0.81033 5.037109,0.79493 2.490513,-0.0154 5.052709,-0.55267 5.693359,-1.19336 0.88644,-0.88651 0.41932,-1.54957 -1.951171,-2.77539 -1.713189,-0.88593 -3.115235,-2.05006 -3.115235,-2.58594 0,-0.53588 -1.096917,-0.97266 -2.439453,-0.97266 z m -11.330078,0.32617 c -0.162765,-0.0123 -0.348716,-0.006 -0.554687,0.0195 -0.274634,0.0345 -0.586069,0.10484 -0.925782,0.20898 -1.23749,0.37938 -2.8125,1.13942 -3.5,1.68945 -0.687495,0.55003 -1.25,1.36327 -1.25,1.80664 0,0.44337 0.707985,1.51268 1.572266,2.37696 0.86428,0.86429 1.812864,1.57226 2.107422,1.57226 0.294563,0 0.280538,-0.66137 -0.0293,-1.46875 -0.309823,-0.80739 -0.131443,-1.73352 0.394531,-2.05859 0.525979,-0.32508 0.955078,0.0529 0.955078,0.83984 0,1.02179 1.152604,1.39962 4.029297,1.32422 3.029281,-0.0794 3.953755,-0.48091 3.730469,-1.62109 -0.169944,-0.86779 -1.35713,-1.51563 -2.777344,-1.51563 -1.364746,0 -2.707422,0.28703 -2.982422,0.63867 -0.274995,0.35163 -1.079882,0.0141 -1.789062,-0.75 -1.060349,-1.14247 -1.015935,-1.38867 0.25,-1.38867 0.84668,0 1.539062,-0.48129 1.539062,-1.06836 0,-0.3626 -0.281234,-0.56854 -0.769531,-0.60547 z" />
  </g>
</svg>
