<svg width="120" height="154" viewBox="0 0 120 154" fill="none" xmlns="http://www.w3.org/2000/svg">
<path d="M36.9015 87.3126C36.5622 86.7435 36.1003 86.2622 35.7703 85.6868C35.2897 84.8541 35.0081 83.9846 34.9256 83.0784C34.9178 82.9927 34.945 82.9199 35.0071 82.8602C35.0444 82.8239 35.0944 82.8033 35.1469 82.8028C35.1994 82.8022 35.2504 82.8216 35.2896 82.8571C36.6473 84.1268 37.4958 85.6652 37.8349 87.4721C37.8772 87.699 38.0399 87.8295 38.3231 87.8636C39.3915 87.9872 40.4413 87.917 41.4723 87.6527C41.4935 87.647 41.5128 87.6358 41.5283 87.6202C41.5438 87.6046 41.5549 87.5852 41.5604 87.564C41.5659 87.5427 41.5657 87.5204 41.5598 87.4992C41.5538 87.4781 41.5424 87.4589 41.5267 87.4436C40.3797 86.3706 39.6107 85.0252 39.2197 83.4072C39.1102 82.9544 39.2418 82.8691 39.6144 83.1514C40.8913 84.1183 41.8149 85.4761 42.3853 87.2246C42.4007 87.2712 42.4338 87.3099 42.4776 87.3327C42.5216 87.3554 42.5728 87.3604 42.6207 87.3465L44.9038 86.6852C45.0054 86.6548 45.0329 86.5923 44.9864 86.4975C44.8948 86.3154 44.7201 86.0461 44.4623 85.6897C43.7699 84.729 43.3662 83.7254 43.2511 82.6787C43.2206 82.4119 43.3095 82.363 43.518 82.5321C44.6878 83.4714 45.5616 84.6348 46.1394 86.0225C46.1544 86.0579 46.1763 86.09 46.2039 86.1168C46.2315 86.1437 46.2642 86.1649 46.3002 86.1791C46.3362 86.1933 46.3746 86.2003 46.4134 86.1997C46.4522 86.1991 46.4906 86.1908 46.5263 86.1755L48.2372 85.4303C48.2694 85.4158 48.2973 85.3931 48.318 85.3645C48.3387 85.3359 48.3515 85.3024 48.3552 85.2672C48.3589 85.2321 48.3533 85.1967 48.339 85.1644C48.3247 85.1321 48.3021 85.1042 48.2736 85.0833C46.163 83.5719 44.3472 81.8614 42.826 79.9519C42.7713 79.8829 42.7005 79.8398 42.6137 79.8226C41.2817 79.55 40.1074 79.5086 39.0909 79.6984C37.6371 79.9648 36.2194 79.6364 34.9404 79.0392C34.5835 78.8727 34.5991 78.7539 34.9872 78.683C36.4375 78.4252 37.7373 78.5151 39.1789 78.9503C39.9648 79.1875 40.8203 79.214 41.7454 79.0297C41.7763 79.0235 41.8052 79.0094 41.8291 78.9887C41.853 78.9681 41.8711 78.9416 41.8818 78.9119C41.8925 78.8822 41.8953 78.8502 41.8899 78.8191C41.8846 78.788 41.8713 78.7588 41.8513 78.7343C41.0703 77.7668 40.2761 76.7572 39.4688 75.7054C39.2824 75.4649 39.0497 75.3061 38.7705 75.229C37.9163 74.9977 36.9332 75.0357 36.0498 75.0672C34.6746 75.1143 33.3475 74.578 32.2249 73.7929C32.1313 73.726 32.0618 73.641 32.0165 73.5379C32.0107 73.5253 32.0082 73.5114 32.0093 73.4975C32.0104 73.4837 32.015 73.4702 32.0228 73.4584C32.0305 73.4466 32.0412 73.4368 32.0537 73.4299C32.0663 73.423 32.0804 73.4192 32.0947 73.4188C33.687 73.4506 35.2254 73.7786 36.71 74.4031C37.2346 74.624 37.777 74.7126 38.3372 74.6688C38.36 74.6668 38.3818 74.6587 38.4004 74.6454C38.419 74.632 38.4337 74.6139 38.4428 74.5929C38.452 74.572 38.4553 74.5489 38.4525 74.5262C38.4497 74.5035 38.4407 74.4819 38.4267 74.4639C37.3568 73.1118 36.5205 71.7782 35.9178 70.4631C35.8629 70.3449 35.7765 70.2575 35.6587 70.201C35.3276 70.0426 34.9803 69.938 34.6168 69.8871C33.0967 69.6769 31.9735 68.8792 31.2473 67.4941C31.0598 67.1349 31.1487 67.0447 31.514 67.2235C32.3768 67.6492 33.3074 68.1223 34.0403 68.7533C34.3893 69.0551 34.7578 69.3145 35.1456 69.5315C35.4383 69.6967 35.523 69.6226 35.3995 69.3093C34.7934 67.7762 34.3706 66.295 34.1312 64.8654C34.0186 64.1882 34.1106 64.1595 34.4071 64.7793L36.4315 68.9929C36.5494 69.237 36.633 69.2262 36.6824 68.9604C36.9671 67.4658 37.7012 66.116 38.8846 64.911C39.0667 64.7256 39.1458 64.762 39.1218 65.0202C38.9495 66.9631 38.2204 68.527 37.3445 70.3631C37.283 70.4878 37.2841 70.6122 37.3478 70.7362L38.8636 73.6727C38.8739 73.6909 38.8895 73.7056 38.9084 73.7147C38.9272 73.7238 38.9484 73.7269 38.9691 73.7235C38.9898 73.7202 39.009 73.7106 39.024 73.6961C39.0391 73.6816 39.0494 73.6627 39.0534 73.6422C39.3981 71.5959 40.2713 69.9128 41.6731 68.5928C41.9461 68.337 42.0363 68.3902 41.9435 68.7523C41.4587 70.6594 40.7602 72.6587 39.848 74.7502C39.7395 74.9966 39.7566 75.2334 39.8991 75.4607C40.5103 76.4511 41.2848 77.4126 42.2229 78.3453C42.2403 78.3636 42.2627 78.3765 42.2873 78.3823C42.312 78.3882 42.3379 78.3868 42.362 78.3783C42.3861 78.3698 42.4075 78.3546 42.4237 78.3344C42.4398 78.3142 42.45 78.2898 42.4532 78.2642C42.6899 76.3194 43.2783 74.6339 44.2185 73.2078C44.4341 72.8841 44.5393 72.9166 44.5341 73.3052C44.5135 75.0136 44.2645 76.6297 43.7871 78.1536C43.6728 78.5193 43.4414 78.9013 43.3853 79.2805C43.3688 79.3877 43.4019 79.477 43.4847 79.5483C47.2862 82.9028 51.4469 85.7494 56.1511 88.3201C56.4979 88.5116 56.8594 88.6777 57.2356 88.8186C57.3542 88.862 57.4371 88.8252 57.4844 88.7082C58.1243 87.0915 58.7721 85.4635 59.4279 83.8242C61.3911 78.9158 62.8955 73.9169 63.9408 68.8274C63.9658 68.6991 63.9198 68.6057 63.8028 68.5473C62.1818 67.7248 60.7287 66.7269 59.4437 65.5535C58.1414 64.362 56.9813 62.9679 55.9634 61.3711C54.8193 59.5783 53.6858 57.447 52.5629 54.9774C52.4119 54.644 52.241 54.3294 52.0503 54.0335C51.9964 53.9515 51.92 53.9083 51.8212 53.9041C50.8298 53.8551 49.9695 53.5477 48.9638 53.7742C47.7405 54.0501 46.5042 53.6208 45.522 52.9024C45.5075 52.8918 45.4956 52.878 45.4873 52.8621C45.4789 52.8461 45.4744 52.8285 45.4739 52.8106C45.4734 52.7926 45.477 52.7747 45.4844 52.7584C45.4919 52.742 45.503 52.7276 45.5169 52.7162C45.5762 52.6687 45.6436 52.6401 45.719 52.6304C46.9179 52.4809 48.0467 52.6211 49.1053 53.0511C49.8134 53.3372 50.5507 53.3606 51.2653 53.1336C51.2937 53.1244 51.3197 53.109 51.3416 53.0886C51.3634 53.0682 51.3805 53.0433 51.3917 53.0156C51.4029 52.9879 51.4079 52.9581 51.4063 52.9283C51.4048 52.8984 51.3968 52.8693 51.3828 52.8429C50.8978 51.9437 50.3325 51.0913 49.6869 50.2857C49.6146 50.194 49.5214 50.1374 49.4073 50.1158C48.0776 49.843 46.7647 49.5369 45.4081 49.3972C44.1816 49.2722 43.0409 48.7443 41.9861 47.8135C41.7305 47.5897 41.7735 47.4887 42.1151 47.5107C43.5139 47.6071 44.7066 47.973 45.6933 48.6083C46.6402 49.2153 47.6912 49.3822 48.7858 49.2921C48.9196 49.2814 48.9483 49.2215 48.8718 49.1125C48.2174 48.1739 47.6026 47.1429 47.0273 46.0197C46.5194 45.0309 45.4671 44.4115 44.4265 44.2187C43.1457 43.9824 42.3739 43.2654 41.5846 42.3101C41.2803 41.9416 41.3595 41.8173 41.8222 41.9374C42.7865 42.1864 43.7868 42.6776 44.5183 43.3784C44.85 43.6955 45.2271 43.9584 45.6496 44.1671C45.9377 44.3103 46.0166 44.2339 45.8862 43.9379L44.6439 41.1119C44.6119 41.0364 44.6319 40.9786 44.7039 40.9385L44.7813 40.8962C44.7921 40.8916 44.8011 40.8941 44.8083 40.9037C45.4065 41.7549 45.9613 42.5227 46.4728 43.2071C46.5757 43.3447 46.6465 43.3298 46.6851 43.1623C46.9938 41.8404 47.5935 40.6272 48.4841 39.5226C48.5246 39.472 48.5897 39.5485 48.6793 39.7522C48.697 39.7902 48.7055 39.8315 48.7042 39.8728C48.6522 41.5484 48.2652 43.0697 47.5432 44.4366C47.4882 44.5394 47.4898 44.6405 47.5479 44.7399L49.3348 47.7759C49.4372 47.9535 49.5153 47.9426 49.569 47.7433C49.8508 46.6539 50.2647 45.6212 50.8109 44.6453C51.0847 44.1554 51.2333 44.1909 51.2567 44.7518C51.3279 46.4705 51.0604 48.0636 50.4541 49.5308C50.3607 49.7565 50.3678 49.9793 50.4754 50.1991L51.3622 51.974C51.3719 51.9946 51.3881 52.0114 51.4083 52.0217C51.4284 52.0321 51.4516 52.0356 51.4742 52.0316C51.4969 52.0276 51.5178 52.0163 51.534 51.9996C51.5502 51.9828 51.5608 51.9613 51.5641 51.9384C51.7205 50.6509 52.1848 49.4935 52.9571 48.4661C53.1773 48.1756 53.2953 48.2121 53.3113 48.5758C53.3869 50.2561 53.103 51.7956 52.4597 53.1943C52.3458 53.443 52.3663 53.6824 52.5211 53.9124C54.0365 56.1455 55.5787 58.4006 57.1478 60.6777C59.1087 63.5262 61.3291 66.0174 63.8088 68.1512C63.9077 68.2381 63.9911 68.2249 64.0592 68.1117L64.1061 68.037C64.1692 67.9307 64.1549 67.8334 64.0633 67.7451C63.9488 67.6363 63.9565 67.5344 64.0863 67.4396C64.1961 67.3612 64.262 67.2561 64.284 67.1243C65.0092 62.689 65.5161 58.1778 65.8047 53.5907C66.0991 48.901 66.3212 44.2244 66.471 39.5611C66.4715 39.5462 66.4689 39.5314 66.4635 39.5176C66.458 39.5038 66.4498 39.4912 66.4393 39.4807C66.4288 39.4702 66.4162 39.4619 66.4024 39.4564C66.3886 39.4509 66.3738 39.4484 66.3589 39.4488C64.3292 39.5328 62.4719 38.6349 61.3599 36.9365C60.8511 36.1572 60.2744 35.4877 59.6299 34.9281C58.6751 34.1003 58.2781 32.8951 58.4941 31.6395C58.4986 31.614 58.5104 31.5902 58.5281 31.5712C58.5459 31.5523 58.5688 31.5389 58.594 31.5327C58.6192 31.5266 58.6457 31.5279 58.6702 31.5366C58.6947 31.5453 58.7161 31.5609 58.7318 31.5816C59.4985 32.6013 60.064 33.6659 60.4283 34.7753C60.673 35.5204 61.3173 36.1056 62.0033 36.4632C63.4351 37.2181 64.864 38.0187 66.2901 38.8651C66.3134 38.8794 66.34 38.8872 66.3673 38.8879C66.3946 38.8886 66.4215 38.8821 66.4455 38.869C66.4695 38.8559 66.4895 38.8368 66.5037 38.8135C66.5179 38.7902 66.5257 38.7635 66.5263 38.7362L66.8793 28.0426C66.8843 27.953 66.8646 27.8692 66.8203 27.791C66.3153 26.886 65.6215 26.1803 64.7389 25.6741C63.183 24.7842 61.7641 23.4808 60.8041 22.0447C60.6247 21.7758 60.6844 21.7028 60.983 21.8257C62.8903 22.5998 64.1888 23.8779 65.4118 25.4839C65.7624 25.9504 66.2063 26.2938 66.6623 26.6489C66.6826 26.6651 66.7071 26.6754 66.7329 26.6785C66.7588 26.6816 66.785 26.6774 66.8086 26.6664C66.8322 26.6554 66.8523 26.638 66.8665 26.6162C66.8808 26.5944 66.8886 26.569 66.8892 26.543C66.9226 24.5875 66.9676 22.6088 67.0243 20.6068C67.062 19.229 65.488 18.0773 64.462 17.5087C63.3555 16.8908 62.4361 15.7021 61.5618 14.7829C61.5484 14.7685 61.5397 14.7503 61.537 14.7308C61.5342 14.7112 61.5375 14.6913 61.5465 14.6738C61.5554 14.6562 61.5695 14.6418 61.5869 14.6325C61.6043 14.6232 61.6241 14.6195 61.6437 14.6218C63.0936 14.8125 64.757 16.0908 65.5074 17.325C65.8506 17.89 66.2763 18.3724 66.7845 18.772C66.8069 18.7894 66.8337 18.8001 66.8619 18.8031C66.89 18.8061 66.9185 18.8011 66.944 18.7888C66.9695 18.7765 66.9911 18.7573 67.0063 18.7334C67.0215 18.7095 67.0297 18.6818 67.03 18.6535C67.0657 14.3883 66.8515 10.2197 65.676 6.10138C65.6639 6.05406 65.6809 6.02299 65.7271 6.00816L65.7311 6.00645C65.7746 5.99276 65.8045 6.00709 65.8209 6.04943C67.1795 9.58208 67.7273 13.497 67.7902 17.2529C67.7947 17.5069 67.8703 17.5297 68.0171 17.3211C68.7731 16.2514 69.7792 15.2448 71.0356 14.3014C71.1161 14.2402 71.2075 14.2046 71.3098 14.1946C71.332 14.1918 71.3545 14.195 71.375 14.204C71.3955 14.2129 71.4133 14.2273 71.4266 14.2456C71.44 14.2638 71.4483 14.2854 71.4509 14.3081C71.4534 14.3308 71.4501 14.3539 71.4412 14.3749C70.9125 15.628 70.2467 16.7453 69.4438 17.7268C68.8636 18.4334 67.8767 19.5415 67.905 20.5073C67.9616 22.45 67.9797 24.2534 67.9592 25.9172C67.9572 26.1486 68.0328 26.1769 68.186 26.0022C69.4399 24.5733 70.8777 23.269 72.4678 22.3008C72.8468 22.07 72.9263 22.1468 72.7063 22.5311C71.6152 24.4522 70.1255 26.1664 68.2372 27.6737C68.1457 27.7477 68.0718 27.841 68.021 27.9467C67.9701 28.0525 67.9436 28.168 67.9434 28.285C67.9167 35.5275 67.5166 42.7496 66.7429 49.9514C66.7127 50.2361 66.7689 50.2543 66.9116 50.0062C67.9744 48.1552 69.443 47.1145 71.34 46.2569C71.9717 45.9697 72.5668 45.5661 73.1252 45.0461C73.7713 44.4499 73.9185 43.5885 73.8315 42.743C73.7344 41.8175 73.97 40.8534 74.5381 39.8506C74.5547 39.8215 74.5794 39.7978 74.6092 39.7823C74.6389 39.7669 74.6725 39.7604 74.7059 39.7636C74.7393 39.7669 74.771 39.7797 74.7973 39.8005C74.8236 39.8214 74.8433 39.8494 74.854 39.8812C75.3137 41.1854 75.0956 42.4267 74.1997 43.6051C74.1932 43.6158 74.1939 43.625 74.202 43.6327L74.2796 43.6976C74.3451 43.7509 74.407 43.7468 74.4653 43.6856L77.0248 40.9894C77.0836 40.9271 77.128 40.8529 77.155 40.7718C77.182 40.6907 77.1908 40.6048 77.181 40.5201C77.0329 39.2346 77.2985 38.0717 77.9779 37.0313C78.1905 36.7042 78.3187 36.7348 78.3627 37.1232C78.4414 37.818 78.4404 38.5443 78.3597 39.3019C78.3394 39.5014 78.4017 39.5321 78.5467 39.3943L81.4409 36.6324C81.6619 36.4226 81.7154 36.4587 81.6014 36.7408C80.8743 38.5455 79.6935 40.2606 78.0588 41.8861C78.0516 41.8921 78.0464 41.9002 78.0442 41.9093C78.0419 41.9185 78.0427 41.9281 78.0464 41.9367C78.0501 41.9454 78.0564 41.9526 78.0645 41.9573C78.0727 41.962 78.0821 41.964 78.0914 41.9629C78.3786 41.9651 78.6163 41.7497 78.8686 41.6474C80.0875 41.1666 81.3623 40.9484 82.6928 40.9926C82.7297 40.9936 82.7649 41.0076 82.792 41.0321C82.819 41.0565 82.8361 41.0898 82.8399 41.1258C82.8459 41.1884 82.824 41.2399 82.7742 41.28C81.6026 42.1907 80.1377 42.8021 78.3797 43.1141C77.8212 43.2144 77.2988 43.231 76.8125 43.164C76.726 43.1514 76.6477 43.1711 76.5776 43.2231L75.121 44.2921C74.7614 44.5576 74.8053 44.6892 75.2527 44.6869C76.4935 44.677 77.6558 44.8889 78.7398 45.3224C79.0411 45.4442 79.041 45.5658 78.7396 45.6874C77.068 46.3603 75.4167 46.2701 73.7858 45.4168C73.6308 45.3363 73.4826 45.3468 73.3411 45.4481C72.6741 45.922 72.0254 46.4613 71.3948 47.066C70.357 48.0598 69.1824 48.9112 68.0763 49.8171C67.5247 50.2706 66.6212 51.1144 66.5486 51.9156C66.0821 57.0202 65.5005 61.9924 64.804 66.8321C64.8002 66.8594 64.8037 66.8871 64.8142 66.9126C64.8247 66.938 64.8417 66.9602 64.8636 66.9769C64.8855 66.9936 64.9114 67.0041 64.9387 67.0075C64.966 67.0109 64.9937 67.0069 65.019 66.996L70.1384 64.8019C70.1799 64.7842 70.2168 64.7573 70.2462 64.7234C70.2756 64.6894 70.2968 64.6492 70.308 64.6058L70.8929 62.3876C70.9101 62.3182 70.9064 62.2466 70.8821 62.1823C70.6239 61.5121 70.2187 60.99 69.6916 60.5125C69.0336 59.9118 68.9583 58.8633 69.0927 58.0336C69.0973 58.0011 69.1113 57.9707 69.133 57.9462C69.1547 57.9216 69.1831 57.9039 69.2147 57.8953C69.2463 57.8867 69.2798 57.8876 69.3109 57.8978C69.342 57.908 69.3695 57.9271 69.3899 57.9528C69.8841 58.5777 70.4434 59.373 70.5467 60.1782C70.589 60.5101 70.6835 60.8285 70.8304 61.1334C71.0438 61.5724 71.2101 61.5558 71.3293 61.0839C71.6618 59.7805 72.1065 58.4701 72.6634 57.1525C73.0623 56.1986 71.9777 54.7724 71.8954 53.7245C71.8483 53.1451 71.9033 52.5836 72.0605 52.0399C72.0694 52.0067 72.0879 51.9769 72.1138 51.9542C72.1396 51.9315 72.1716 51.917 72.2056 51.9125C72.2397 51.908 72.2744 51.9137 72.3052 51.9289C72.336 51.944 72.3617 51.968 72.3789 51.9978C73.0484 53.1032 73.2878 54.2704 73.0971 55.4993C73.0857 55.5662 73.0837 55.6346 73.0911 55.7046C73.1041 55.8549 73.1508 55.9106 73.2312 55.8717C73.2563 55.8595 73.2752 55.8403 73.2879 55.8142C73.9437 54.3736 74.6763 53.0746 75.4856 51.917C75.6772 51.6417 75.8924 51.3938 76.1311 51.1732C76.3439 50.978 76.397 51.015 76.2904 51.2845L74.3765 56.1369C74.2791 56.3833 74.3492 56.4474 74.5868 56.329C75.3985 55.9225 76.2796 55.6122 77.2301 55.398C77.8752 55.2546 77.9818 55.4327 77.5499 55.9324C76.6642 56.9586 75.4069 57.6393 73.7779 57.9745C73.7212 57.986 73.668 58.0101 73.6225 58.0452C73.5769 58.0802 73.5403 58.1252 73.5154 58.1765L72.271 60.7176C72.0619 61.1466 72.1468 61.2155 72.5256 60.9243C73.1689 60.4319 74.0183 60.1088 75.0739 59.9549C75.0932 59.9521 75.1128 59.9533 75.1315 59.9584C75.1502 59.9634 75.1676 59.9723 75.1826 59.9843C75.1976 59.9964 75.2099 60.0114 75.2186 60.0283C75.2273 60.0453 75.2322 60.0639 75.2332 60.0829C75.2376 60.1494 75.2197 60.2103 75.1795 60.2655C74.2175 61.5578 73.0192 62.3795 71.5847 62.7308C71.5032 62.7506 71.4275 62.7897 71.3639 62.8449C71.3002 62.9001 71.2504 62.9699 71.2186 63.0483C71.0554 63.4467 70.9346 63.8645 70.8562 64.3016C70.8272 64.473 70.895 64.5316 71.0597 64.4776C72.7229 63.9196 74.1767 63.1062 75.4212 62.0375C77.375 60.3624 79.1969 58.663 80.8869 56.9393C80.9744 56.8496 81.0077 56.7425 80.9866 56.6179C80.9437 56.3706 80.8655 56.1247 80.7522 55.8803C80.3257 54.969 80.3217 53.9873 80.7401 52.9352C80.8049 52.7694 80.8833 52.7632 80.9754 52.9165C81.5715 53.9164 81.7523 54.8668 81.5177 55.7676C81.3864 56.2638 81.4992 56.3272 81.856 55.9579L85.174 52.5202C85.5687 52.1126 85.6569 52.1705 85.4386 52.694C84.8398 54.1152 83.9712 55.4721 82.8328 56.7645C82.6078 57.0174 82.6592 57.1029 82.9869 57.021C84.0249 56.7618 85.0376 56.8797 86.0252 57.3748C86.046 57.3849 86.0636 57.4007 86.0759 57.4204C86.0882 57.44 86.0947 57.4626 86.0946 57.4855C86.0945 57.5084 86.0879 57.5306 86.0754 57.5495C86.063 57.5684 86.0453 57.5832 86.0245 57.5921C84.6901 58.2093 83.2697 58.4759 81.7633 58.3918C81.5208 58.3786 81.3134 58.4555 81.141 58.6225C79.5975 60.1219 77.9328 61.3245 76.0201 62.4034C74.4102 63.3156 72.7953 64.315 71.1752 65.4016C71.0315 65.4976 71.008 65.6165 71.1048 65.7583C72.9178 68.4231 77.0469 67.9752 79.7772 67.3674C79.883 67.3431 79.9484 67.278 79.9734 67.172C80.2937 65.7577 80.5554 64.3064 81.9061 63.516C81.9443 63.4933 81.9882 63.4819 82.0326 63.4832C82.077 63.4845 82.1201 63.4985 82.1568 63.5236C82.1935 63.5486 82.2223 63.5837 82.2397 63.6245C82.2572 63.6654 82.2626 63.7104 82.2553 63.7542C82.0561 64.9597 81.4837 65.9372 80.5378 66.6868C80.4592 66.7488 80.4312 66.8291 80.4539 66.9275C80.4786 67.0268 80.5425 67.0951 80.6458 67.1323C80.7225 67.1633 80.8009 67.1682 80.881 67.147C81.7177 66.9381 82.5419 66.7767 83.3537 66.6627C83.4972 66.6417 83.6336 66.5875 83.7521 66.5045C83.8705 66.4215 83.9677 66.312 84.0357 66.1849C84.2737 65.7341 84.4246 65.2447 84.4883 64.7168C84.6267 63.5706 85.1162 62.583 85.9739 61.8111C85.9899 61.7963 86.0098 61.7863 86.0312 61.7823C86.0527 61.7784 86.0749 61.7806 86.0951 61.7888C86.1153 61.797 86.1328 61.8107 86.1455 61.8285C86.1582 61.8462 86.1656 61.8672 86.1668 61.889C86.225 62.8636 86.079 64.0537 85.396 64.8157C85.0968 65.1502 84.5918 65.77 84.5844 66.2358C84.5844 66.2651 84.591 66.294 84.6038 66.3203C84.6166 66.3467 84.6353 66.3697 84.6583 66.3878C84.6814 66.4058 84.7083 66.4183 84.7369 66.4244C84.7655 66.4305 84.7952 66.43 84.8236 66.4229C85.8331 66.1677 86.7774 66.0102 87.6567 65.9503C88.5194 65.8926 88.5428 66.0059 87.727 66.2901L86.3826 66.7581C86.0781 66.8651 86.0735 66.9815 86.3686 67.1075C87.2959 67.5089 88.1364 68.0585 88.8904 68.756C88.9555 68.8158 88.9747 68.8872 88.9479 68.9701C88.9319 69.0213 88.8994 69.0658 88.8555 69.0965C88.8116 69.1272 88.7587 69.1425 88.7051 69.14C87.269 69.0753 86.0072 68.6235 84.9197 67.7844C84.62 67.5539 84.2904 67.4966 83.931 67.6126L83.0375 67.9012C82.6754 68.0183 82.6548 68.1797 82.9758 68.3853C83.5994 68.7868 84.1482 69.4093 84.6222 70.2527C84.8063 70.5816 84.7187 70.688 84.3593 70.5718C83.4212 70.2664 82.4213 69.8155 81.714 69.1211C81.5206 68.9313 81.3196 68.7519 81.1111 68.5828C81.0721 68.5516 81.0262 68.5305 80.9774 68.5213C80.9285 68.5121 80.8783 68.515 80.8311 68.5299C79.2931 69.0046 77.6167 69.1922 75.8017 69.0928C73.3945 68.9617 71.6579 67.9196 70.592 65.9663C70.5409 65.872 70.4666 65.8487 70.3692 65.8964C68.5794 66.8118 66.7765 67.3926 64.9602 67.6387C64.8647 67.6515 64.7758 67.6943 64.7067 67.761C64.6375 67.8277 64.5917 67.9147 64.5761 68.0092C63.5165 74.2226 61.9298 80.1905 59.816 85.9132C59.8068 85.9391 59.8036 85.9669 59.8068 85.9942C59.8099 86.0216 59.8193 86.0478 59.8342 86.071C59.8491 86.0942 59.8691 86.1136 59.8927 86.1278C59.9163 86.142 59.9428 86.1507 59.9703 86.153L62.9831 86.3792C63.115 86.3892 63.247 86.3585 63.3615 86.2911C63.476 86.2237 63.5677 86.123 63.6244 86.0021C64.273 84.6234 65.2029 83.3304 66.4141 82.1231C66.4943 82.0462 66.5281 81.9515 66.5154 81.8393C66.4554 81.3083 66.2312 80.8437 65.8428 80.4457C65.1937 79.7815 64.9491 78.9449 65.1091 77.9357C65.1338 77.7805 65.2074 77.7533 65.3296 77.8541C66.0501 78.4466 66.4373 79.1265 66.4911 79.8939C66.5179 80.2642 66.5819 80.6305 66.6832 80.9929C66.6942 81.0292 66.7162 81.0613 66.7461 81.0846C66.776 81.1079 66.8125 81.1213 66.8504 81.1231C66.8883 81.1248 66.9258 81.1147 66.9577 81.0942C66.9896 81.0737 67.0144 81.0437 67.0285 81.0085L68.7715 76.5626C68.7851 76.5274 68.7863 76.4888 68.7751 76.4532C68.7639 76.4176 68.7409 76.3871 68.7099 76.3669C67.6799 75.6895 67.2476 74.7234 67.4131 73.4687C67.4177 73.4341 67.4319 73.4015 67.4541 73.3746C67.4763 73.3477 67.5056 73.3276 67.5387 73.3165C67.5718 73.3055 67.6073 73.3039 67.6412 73.3121C67.6752 73.3202 67.7061 73.3377 67.7306 73.3626C68.3744 74.0179 68.8079 74.7847 69.0312 75.6629C69.0756 75.8461 69.1369 75.8518 69.2151 75.6803C69.7295 74.5621 70.3889 73.3998 71.1934 72.1934C71.2208 72.1532 71.2691 72.1414 71.3382 72.1582C71.3622 72.1641 71.3835 72.1782 71.3985 72.1983C71.4136 72.2184 71.4214 72.2432 71.4209 72.2686C71.3667 73.7369 70.889 74.9771 70.4108 76.351C70.3533 76.5153 70.4041 76.5637 70.5631 76.4963C71.5708 76.0685 72.6827 75.8113 73.8988 75.7245C74.0095 75.7156 74.0889 75.7622 74.137 75.8642C74.2612 76.1287 74.1431 76.4126 73.8861 76.5431C73.2196 76.8832 72.6899 77.3322 71.918 77.469C71.2965 77.5818 70.6674 77.5999 70.0308 77.5235C69.9155 77.5104 69.8304 77.5553 69.7755 77.6581C69.5684 78.0544 69.3482 78.4476 69.1146 78.8377C68.679 79.5759 68.1078 80.2023 67.6446 80.9092C67.368 81.3288 67.4558 81.429 67.9082 81.21C68.8558 80.749 69.8365 80.6229 70.8505 80.8317C70.8863 80.8396 70.9192 80.8573 70.9454 80.8829C70.9716 80.9086 70.99 80.941 70.9987 80.9766C71.0073 81.0122 71.0058 81.0495 70.9943 81.0843C70.9827 81.1191 70.9617 81.1499 70.9335 81.1733C69.5196 82.3188 68.2005 82.691 66.9762 82.29C66.8476 82.2492 66.7632 82.2922 66.7232 82.4188C66.27 83.8498 65.5845 85.0987 64.6667 86.1655C64.5436 86.31 64.5765 86.3724 64.7653 86.3526C66.2006 86.1982 67.6446 86.0003 69.0972 85.7591C71.0355 85.4372 73.1598 84.6581 75.4699 83.4217C75.9909 83.1433 76.1814 82.5974 76.26 82.0465C76.4926 80.3769 77.0359 78.9745 77.8897 77.8394C78.1307 77.5193 78.2541 77.5592 78.26 77.9589C78.2692 78.7262 78.1102 79.5727 77.7829 80.4987C77.5407 81.181 77.026 81.7834 76.7072 82.4315C76.5512 82.7457 76.6276 82.819 76.9365 82.6514C78.2046 81.9717 79.4977 81.3378 80.8158 80.7497C81.4291 80.4752 81.7692 79.8156 81.8285 79.1799C81.9216 78.1928 82.2747 77.2416 82.8879 76.3263C83.2163 75.8339 83.4183 75.881 83.4939 76.4674C83.5482 76.8911 83.5022 77.3503 83.3559 77.8448C83.1441 78.5596 82.6548 79.1655 82.2191 79.7798C82.0371 80.0366 82.0928 80.106 82.3861 79.9879L86.5454 78.33C86.5939 78.3101 86.6354 78.2758 86.6646 78.2316C86.6939 78.1873 86.7094 78.1351 86.7094 78.0815C86.6911 76.8284 87.1564 75.8343 88.1053 75.0993C88.1289 75.0807 88.1572 75.0691 88.1871 75.0659C88.2169 75.0628 88.2471 75.0682 88.274 75.0815C88.3009 75.0948 88.3235 75.1155 88.3391 75.1412C88.3546 75.1669 88.3626 75.1965 88.362 75.2265C88.3416 76.2273 88.1076 77.0715 87.6601 77.7591C87.5461 77.9363 87.5874 77.9887 87.7841 77.9163C88.7524 77.5642 89.7086 77.2474 90.6529 76.9659C91.529 76.7038 91.5744 76.8069 90.789 77.2754C89.5222 78.0293 88.204 78.7502 86.8344 79.438C86.6869 79.5101 86.6797 79.5942 86.8127 79.6904C86.9258 79.7696 87.0544 79.8271 87.1984 79.863C88.5667 80.206 89.6632 80.8624 90.4881 81.8319C90.5092 81.8561 90.5227 81.8861 90.5267 81.9179C90.5307 81.9498 90.5251 81.9821 90.5106 82.0108C90.4962 82.0394 90.4735 82.0631 90.4455 82.0789C90.4175 82.0946 90.3854 82.1016 90.3534 82.099C88.5692 81.9897 86.9967 81.3565 85.6359 80.1994C85.6056 80.1732 85.5683 80.1563 85.5283 80.1509C85.4883 80.1454 85.4475 80.1516 85.4106 80.1686L82.8887 81.3296C82.8681 81.3394 82.8505 81.3549 82.838 81.3741C82.8255 81.3934 82.8187 81.4156 82.8183 81.4383C82.8179 81.4609 82.824 81.4831 82.8358 81.5021C82.8477 81.5211 82.8648 81.5363 82.8851 81.5457C83.8713 82.0112 84.7071 82.6582 85.3926 83.4866C85.6441 83.7869 85.5758 83.9089 85.1878 83.8525C83.8447 83.6514 82.6265 83.1 81.5331 82.1983C81.4593 82.1379 81.3707 82.0984 81.2764 82.0839C81.1822 82.0693 81.0858 82.0803 80.9972 82.1156L77.5083 83.4986C77.2392 83.6064 77.2445 83.6956 77.5241 83.7662C79.4207 84.2491 80.981 85.2635 82.2047 86.8095C82.4278 87.0916 82.3675 87.18 82.0239 87.0747C80.0335 86.4646 78.097 85.5057 76.2144 84.198C76.1374 84.1441 76.049 84.1089 75.9563 84.0953C75.8635 84.0817 75.769 84.0899 75.6802 84.1195C73.8727 84.7196 72.2482 85.32 70.8067 85.9207C68.7585 86.7741 67.1656 87.2713 66.0282 87.4122C63.9398 87.6689 61.8617 87.3727 59.7937 86.5237C59.7693 86.5134 59.7431 86.5081 59.7166 86.5082C59.6901 86.5083 59.6639 86.5138 59.6396 86.5244C59.6153 86.5349 59.5934 86.5503 59.5752 86.5695C59.5571 86.5888 59.543 86.6115 59.5338 86.6363C57.8764 91.0365 55.9883 95.3635 53.8697 99.6175C51.3772 104.62 48.8491 109.299 46.2855 113.654C46.0229 114.1 46.085 114.151 46.4718 113.807C49.4578 111.166 52.8763 109.128 56.7577 108.299C58.4751 107.932 60.1135 107.698 61.6729 107.596C62.6567 107.532 63.1059 107.017 63.8055 106.462C63.9143 106.376 63.9878 106.252 64.0122 106.115C64.0367 105.979 64.0104 105.838 63.9384 105.719C63.6873 105.307 63.3861 104.936 63.0348 104.607C62.3981 104.011 62.1557 103.103 62.2694 102.242C62.273 102.213 62.2839 102.186 62.301 102.163C62.3182 102.14 62.341 102.122 62.3672 102.111C62.3934 102.1 62.4222 102.095 62.4506 102.099C62.479 102.102 62.5061 102.112 62.5293 102.129C63.5679 102.873 63.7996 104.032 64.078 105.199C64.0979 105.282 64.1354 105.36 64.188 105.428C64.2406 105.495 64.3071 105.55 64.3829 105.589C64.4587 105.629 64.5419 105.651 64.627 105.655C64.712 105.659 64.7969 105.644 64.8757 105.612C65.8682 105.203 66.6459 103.899 67.0216 102.97C67.0612 102.872 67.0684 102.771 67.0434 102.667C66.8764 101.97 66.4379 101.414 65.9195 100.924C65.249 100.288 65.0758 99.1997 65.1659 98.322C65.2085 97.9239 65.3493 97.8848 65.5884 98.2047C65.9595 98.7007 66.2579 99.2052 66.4836 99.7184C66.8148 100.465 66.7542 101.294 67.2707 101.972C67.2848 101.99 67.3033 102.004 67.3244 102.013C67.3455 102.021 67.3685 102.024 67.3911 102.021C67.4137 102.018 67.435 102.009 67.4531 101.995C67.4712 101.981 67.4852 101.963 67.494 101.942C68.1507 100.35 68.9559 98.821 69.9097 97.3557C69.9866 97.2372 70.0335 97.1735 70.0505 97.1647C70.23 97.052 70.3138 97.1015 70.3019 97.3132C70.2299 98.6459 69.9539 99.8649 69.4738 100.97C69.3893 101.168 69.4443 101.223 69.6387 101.134C70.27 100.853 70.9096 100.688 71.5574 100.637C71.8546 100.614 71.9044 100.715 71.7069 100.938C70.7024 102.071 69.4948 102.904 68.0843 103.439C67.388 103.704 66.8969 104.322 66.4476 104.888C66.3074 105.063 66.3477 105.132 66.5685 105.094C67.2227 104.983 67.9104 105.002 68.6317 105.151C68.655 105.156 68.6766 105.167 68.6939 105.183C68.7113 105.199 68.7238 105.22 68.73 105.243C68.7361 105.266 68.7357 105.29 68.7288 105.312C68.7219 105.334 68.7088 105.354 68.6909 105.369C67.7941 106.152 66.7901 106.562 65.6788 106.6C65.4074 106.608 65.1743 106.707 64.9795 106.896L64.7296 107.134C64.5287 107.327 64.5678 107.421 64.8468 107.415C66.9279 107.381 69.3052 107.219 71.9787 106.928C72.6304 106.857 73.0393 106.5 73.2053 105.857C73.4911 104.743 74.0437 103.708 74.9691 103.017C75.0724 102.938 75.1302 102.963 75.1424 103.093C75.2925 104.52 74.6407 105.412 73.6018 106.235C73.0961 106.635 73.1613 106.783 73.7974 106.679C74.7789 106.515 75.7564 106.383 76.7299 106.283C76.8837 106.267 77.0183 106.197 77.1337 106.071C77.5917 105.573 77.9008 105.049 78.0611 104.497C78.35 103.492 79.0127 102.615 79.8388 101.971C79.8695 101.946 79.9068 101.932 79.9458 101.929C79.9849 101.926 80.024 101.935 80.0579 101.954C80.0919 101.974 80.1192 102.003 80.1364 102.038C80.1535 102.073 80.1597 102.113 80.1542 102.152C80.0149 103.234 79.5428 104.352 78.6576 105.06C78.2961 105.347 77.9823 105.662 77.7162 106.005C77.7039 106.022 77.6965 106.042 77.6949 106.063C77.6933 106.084 77.6975 106.104 77.7071 106.123C77.7167 106.141 77.7312 106.157 77.7492 106.168C77.7671 106.178 77.7876 106.184 77.8084 106.183C78.7257 106.145 79.6244 106.103 80.5048 106.057C81.1276 106.024 81.6067 105.535 81.9008 105.031C82.5429 103.931 83.7679 102.805 85.0619 102.437C85.083 102.431 85.1053 102.431 85.1263 102.438C85.1474 102.444 85.1662 102.456 85.1808 102.472C85.1954 102.489 85.2052 102.509 85.209 102.53C85.2129 102.552 85.2106 102.574 85.2026 102.594C84.6369 103.936 83.4509 104.907 82.1824 105.593C81.6414 105.888 81.6786 106.023 82.294 105.997C83.8682 105.93 85.4749 105.92 87.114 105.969C87.2351 105.973 87.276 106.032 87.2368 106.146C87.2065 106.231 87.145 106.281 87.0524 106.295C85.6848 106.52 84.3857 106.701 83.1553 106.84C82.8746 106.872 82.8582 106.957 83.106 107.095C84.0868 107.645 84.9638 108.342 85.7369 109.186C85.9402 109.407 85.9459 109.636 85.7541 109.873C85.6873 109.955 85.6042 109.979 85.5048 109.943C83.8313 109.377 82.7336 108.538 81.3775 107.254C81.3136 107.193 81.2373 107.148 81.1538 107.12C81.0702 107.092 80.9815 107.082 80.8938 107.092L79.1242 107.294C78.9558 107.313 78.9333 107.38 79.0566 107.495C79.8543 108.239 80.4732 109.094 80.9133 110.06C81.0788 110.424 80.9848 110.513 80.631 110.328C79.2959 109.632 78.1834 108.736 77.2936 107.64C77.1834 107.503 77.0393 107.437 76.8614 107.441L73.8285 107.505C73.5802 107.512 73.5451 107.602 73.7232 107.774C74.5579 108.576 75.2321 109.595 75.7459 110.832C75.9106 111.231 75.7983 111.337 75.4092 111.151C74.0152 110.485 73.0724 109.365 72.581 107.791C72.5172 107.585 72.3768 107.484 72.16 107.491C68.0401 107.576 63.7654 108.089 59.3357 109.029C57.6721 109.384 56.0129 109.852 54.3581 110.433C54.1006 110.524 54.0966 110.625 54.3461 110.737C55.6094 111.301 56.7707 112.018 57.83 112.888C57.9914 113.02 58.198 113.083 58.4054 113.064C58.7868 113.026 59.1642 112.978 59.5376 112.922C60.5587 112.765 61.7017 113.002 62.5915 113.452C62.931 113.623 62.9169 113.755 62.5491 113.847C61.2458 114.178 60.0523 114.123 58.9688 113.683C58.4936 113.489 58.4286 113.581 58.7735 113.959C59.4773 114.726 60 115.62 60.3415 116.642C60.3718 116.732 60.4316 116.81 60.5111 116.861C60.5907 116.913 60.6853 116.936 60.7793 116.926C62.1415 116.798 63.3673 117.176 64.4565 118.06C64.4725 118.074 64.4843 118.091 64.4907 118.111C64.497 118.131 64.4976 118.152 64.4923 118.172C64.487 118.192 64.4761 118.21 64.4609 118.224C64.4456 118.238 64.4267 118.247 64.4063 118.251C63.1785 118.494 62.0649 118.299 61.0655 117.668C60.6997 117.435 60.5956 117.522 60.7533 117.927C61.1693 118.986 61.6743 120.095 62.2683 121.255C62.3271 121.363 62.417 121.425 62.538 121.441C62.8465 121.478 63.1666 121.51 63.4982 121.534C64.5616 121.612 65.6447 122.181 66.4599 122.848C66.4794 122.865 66.4938 122.887 66.5014 122.911C66.5089 122.936 66.5094 122.962 66.5027 122.987C66.4959 123.011 66.4823 123.033 66.4634 123.05C66.4446 123.066 66.4212 123.077 66.3962 123.08C65.1949 123.258 64.0295 122.984 62.9001 122.26C62.5664 122.047 62.4624 122.128 62.5879 122.502C62.8922 123.407 62.94 124.297 62.7313 125.172C62.6653 125.452 62.5821 125.456 62.4816 125.185L61.4055 122.296C61.3096 122.036 61.2254 122.04 61.153 122.308C60.7134 123.92 59.9999 125.355 59.0127 126.61C58.9243 126.724 58.8658 126.783 58.8374 126.787C58.6143 126.819 58.5122 126.721 58.5311 126.492C58.7063 124.429 59.4593 122.64 60.7899 121.126C60.8647 121.04 60.9004 120.941 60.897 120.828C60.8764 119.918 60.7355 119.095 60.4744 118.36C60.302 117.875 60.1531 117.882 60.0275 118.38C59.6023 120.068 58.6945 121.574 57.3042 122.899C56.9702 123.217 56.8375 123.148 56.9059 122.691C57.1055 121.363 57.6486 120.157 58.5353 119.073C58.9615 118.549 59.4296 118.056 59.9398 117.595C59.9927 117.546 60.0262 117.479 60.0341 117.408C60.042 117.337 60.0237 117.265 59.9827 117.207C59.2744 116.197 58.436 115.303 57.4674 114.523C57.4533 114.511 57.4365 114.504 57.4186 114.5C57.4007 114.497 57.3823 114.498 57.365 114.504C57.3477 114.51 57.3321 114.52 57.3196 114.533C57.3072 114.546 57.2982 114.562 57.2937 114.58C56.8499 116.291 56.0658 117.701 54.9415 118.81C54.6256 119.122 54.5017 119.059 54.5697 118.619C54.8383 116.877 55.4755 115.331 56.4811 113.98C56.5233 113.924 56.5428 113.854 56.5359 113.784C56.5291 113.714 56.4962 113.648 56.4438 113.6L53.5352 110.962C53.5019 110.931 53.4604 110.911 53.4157 110.904C53.3711 110.896 53.3254 110.902 53.284 110.92C50.3316 112.266 47.5947 113.973 45.0733 116.041C44.8667 116.21 44.7013 116.401 44.5772 116.614C41.0721 122.636 37.1149 128.874 32.7054 135.328C32.0733 136.251 31.3663 137.23 30.5843 138.265C30.4986 138.378 30.486 138.37 30.5464 138.243C31.4844 136.278 32.7632 134.464 33.853 132.621C36.8829 127.498 39.8578 122.385 42.7777 117.28C42.9456 116.986 42.9891 116.694 42.9082 116.402C42.4025 114.615 41.4746 112.889 40.1244 111.225C38.4509 109.163 36.5174 107.188 34.3239 105.302C34.2878 105.271 34.2439 105.251 34.1971 105.244C34.1502 105.237 34.1024 105.243 34.0588 105.261C32.4459 105.971 30.7164 106.13 28.8706 105.737C28.6006 105.681 28.3781 105.762 28.2032 105.979C27.5906 106.739 26.7638 107.124 25.7229 107.137C25.5791 107.139 25.5411 107.076 25.6088 106.947C26.0202 106.167 26.6138 105.686 27.3896 105.507C27.5574 105.467 27.5641 105.412 27.4098 105.341L25.2819 104.333C25.1457 104.267 25.0045 104.255 24.8583 104.296C23.9436 104.546 23.1949 105.131 22.2374 105.263C21.7147 105.335 21.309 105.348 21.0201 105.3C19.9741 105.121 19.941 104.827 20.9206 104.42C21.6828 104.102 22.6825 103.987 23.9199 104.074C24.6753 104.127 24.735 103.949 24.0987 103.541C22.8527 102.746 21.3114 102.649 20.0566 101.884C19.6056 101.608 19.0116 101.81 18.6163 102.092C17.9635 102.558 17.2883 102.842 16.5908 102.944C15.9943 103.034 15.8745 102.836 16.2314 102.351C16.9497 101.368 17.9122 101.315 19.0204 101.291C19.2095 101.287 19.2339 101.221 19.0937 101.093C18.3776 100.44 17.8126 99.5783 17.3985 98.5091C17.2987 98.2477 17.3567 98.2064 17.5725 98.3852L19.9088 100.327C20.2529 100.614 20.3942 100.534 20.3328 100.09C20.1915 99.0639 20.3589 97.9618 20.835 96.7835C20.8416 96.7672 20.8514 96.7524 20.8639 96.7401C20.8764 96.7278 20.8913 96.7182 20.9076 96.712C20.924 96.7057 20.9415 96.7029 20.959 96.7037C20.9765 96.7045 20.9937 96.7089 21.0094 96.7166C21.0627 96.7449 21.1004 96.7869 21.1225 96.8427C21.6989 98.3057 21.8175 99.7746 21.4783 101.249C21.4617 101.325 21.4669 101.403 21.4931 101.476C21.5194 101.549 21.5657 101.613 21.6268 101.661C22.5767 102.393 23.6588 102.955 24.8731 103.348C25.1714 103.444 25.2496 103.353 25.1076 103.074C24.4571 101.8 24.1956 100.483 24.323 99.1238C24.3421 98.9217 24.4174 98.8985 24.5487 99.0543C25.6625 100.375 26.1941 101.852 26.448 103.586C26.4683 103.723 26.5466 103.809 26.6829 103.841L29.0033 104.381C29.0232 104.385 29.0439 104.383 29.063 104.376C29.082 104.369 29.0986 104.357 29.1108 104.341C29.1229 104.325 29.13 104.306 29.1313 104.286C29.1326 104.266 29.128 104.246 29.118 104.229C28.5859 103.286 28.3244 102.279 28.3336 101.207C28.334 101.171 28.3448 101.135 28.3648 101.105C28.3847 101.076 28.4129 101.052 28.446 101.038C28.479 101.023 28.5155 101.019 28.551 101.025C28.5865 101.031 28.6195 101.047 28.646 101.072C29.6267 101.993 30.2249 103.095 30.4407 104.379C30.4588 104.477 30.5164 104.536 30.6136 104.556C31.5581 104.743 32.5053 104.819 33.4551 104.783C33.7089 104.774 33.7378 104.689 33.542 104.527C30.3566 101.893 27.8199 98.7487 25.8118 95.1411C25.1925 94.0302 23.4462 93.3547 22.3827 93.2766C21.1417 93.1904 20.0285 92.5061 19.2794 91.5672C19.2623 91.5449 19.2521 91.5182 19.2501 91.4902C19.2482 91.4622 19.2545 91.4342 19.2683 91.4098C19.2821 91.3854 19.3027 91.3656 19.3277 91.3528C19.3527 91.3401 19.3809 91.335 19.4088 91.3382C20.7043 91.4911 21.8389 91.9429 22.8126 92.6935C23.3025 93.0723 23.8635 93.2722 24.4957 93.2932C24.5205 93.2942 24.5451 93.2884 24.5669 93.2764C24.5887 93.2645 24.6067 93.2468 24.6192 93.2253C24.6317 93.2039 24.6381 93.1794 24.6376 93.1545C24.6372 93.1297 24.6301 93.1055 24.6169 93.0844C24.083 92.2123 23.5523 91.2221 23.0246 90.1136C22.891 89.8364 22.6841 89.611 22.4037 89.4375C21.6163 88.9496 20.8649 88.6739 20.1495 88.6103C18.991 88.5105 17.9535 87.7631 17.3602 86.8033C17.2726 86.6608 17.3105 86.6002 17.4738 86.6216C18.5672 86.7553 19.5208 87.1496 20.3345 87.8043C20.8496 88.2201 21.425 88.5006 22.0606 88.6458C22.0892 88.6525 22.119 88.6514 22.1471 88.6427C22.1751 88.634 22.2003 88.6179 22.22 88.5961C22.2397 88.5744 22.2533 88.5477 22.2592 88.519C22.2652 88.4902 22.2634 88.4604 22.2539 88.4326L21.1184 85.0604C21.0696 84.915 20.9811 84.786 20.8628 84.688C20.7445 84.5899 20.6011 84.5266 20.4487 84.5052C19.2516 84.3407 18.2941 83.7684 17.5761 82.7885C17.551 82.754 17.5367 82.7128 17.5352 82.6702C17.5337 82.6275 17.5449 82.5854 17.5674 82.5492C17.59 82.513 17.6228 82.4843 17.6617 82.4669C17.7007 82.4495 17.7439 82.4441 17.786 82.4514C18.9464 82.6568 19.8473 83.1124 20.4886 83.8181C20.7788 84.1385 20.8751 84.0881 20.7774 83.6669C20.4064 82.0658 20.1447 80.5559 19.9925 79.1371C19.9107 78.3561 19.9942 78.3374 20.2429 79.0809L21.7258 83.5076C21.8437 83.8566 21.9546 83.8557 22.0585 83.5048C22.3902 82.402 23.0041 81.4713 23.9 80.7127C23.9274 80.6895 23.9612 80.6751 23.9968 80.6713C24.0325 80.6675 24.0685 80.6744 24.1003 80.6912C24.132 80.7079 24.158 80.7338 24.1749 80.7655C24.1918 80.7971 24.1989 80.8331 24.1952 80.8688C24.0463 82.5633 23.4548 84.0299 22.4207 85.2685C22.4044 85.2886 22.3935 85.3124 22.3892 85.3377C22.3848 85.3629 22.3872 85.3887 22.396 85.4126C22.6667 86.1515 22.9319 86.8625 23.1916 87.5457C23.1927 87.5473 23.1941 87.5486 23.1957 87.5495C23.1974 87.5504 23.1992 87.551 23.2011 87.5511C23.203 87.5512 23.2049 87.5509 23.2066 87.5502C23.2084 87.5495 23.2099 87.5483 23.2112 87.5469C23.7187 86.6447 24.3243 85.8558 25.0281 85.1803C25.3602 84.8612 25.4914 84.9288 25.4218 85.3829C25.2203 86.7213 24.719 87.9341 23.918 89.0213C23.8408 89.1241 23.8252 89.2372 23.8713 89.3608L24.8828 92.07C24.9738 92.3144 25.0634 92.3138 25.1515 92.0681C25.5743 90.8727 26.3087 89.9226 27.3547 89.2179C27.5292 89.1009 27.5937 89.1459 27.548 89.3529C27.2047 90.8819 26.6263 92.3381 25.8128 93.7216C25.7757 93.785 25.7546 93.8564 25.7512 93.9297C25.7479 94.003 25.7623 94.076 25.7934 94.1425C26.7132 96.0925 27.8725 97.7732 29.2713 99.1845C30.4093 100.338 31.6825 101.438 32.96 102.453C34.7481 103.879 36.4501 105.338 38.0661 106.83C38.0718 106.836 38.0787 106.839 38.0862 106.841C38.0937 106.843 38.1015 106.843 38.1089 106.841C38.1163 106.839 38.1232 106.835 38.1288 106.83C38.1344 106.824 38.1386 106.818 38.1411 106.81C38.2686 106.395 38.4702 105.745 38.7458 104.858C38.7529 104.836 38.7524 104.812 38.7443 104.79C38.7363 104.768 38.7212 104.749 38.7013 104.736C37.4907 103.926 36.8882 102.961 36.8936 101.843C36.8941 101.814 36.9021 101.785 36.9167 101.76C36.9314 101.735 36.9523 101.715 36.9774 101.7C37.0025 101.686 37.0309 101.678 37.0598 101.678C37.0888 101.677 37.1173 101.685 37.1426 101.699C38.0376 102.197 38.6103 103.078 38.8606 104.342C38.8645 104.362 38.8741 104.38 38.8883 104.395C38.9026 104.409 38.9208 104.419 38.9407 104.423C38.9605 104.427 38.9811 104.425 38.9999 104.418C39.0187 104.41 39.0348 104.397 39.0462 104.38L40.4373 102.28C40.4725 102.227 40.4962 102.167 40.5071 102.105C40.5179 102.042 40.5156 101.978 40.5002 101.917C40.1834 100.687 39.1376 100.358 38.6078 99.3407C38.3604 98.8701 38.2003 98.3466 38.1273 97.7702C38.1238 97.7434 38.1279 97.716 38.1393 97.6915C38.1507 97.6669 38.1688 97.646 38.1916 97.6313C38.2144 97.6167 38.2409 97.6088 38.268 97.6086C38.2951 97.6084 38.3216 97.616 38.3446 97.6303C39.0574 98.0623 39.6832 98.6601 39.9479 99.4636C40.1196 99.975 40.3604 100.846 40.7321 101.227C40.7512 101.246 40.775 101.26 40.8012 101.266C40.8274 101.273 40.8548 101.272 40.8806 101.265C40.9065 101.257 40.9297 101.242 40.9479 101.222C40.966 101.202 40.9784 101.178 40.9838 101.151L41.7213 97.3539C41.7416 97.2483 41.732 97.1451 41.6924 97.0442C41.5168 96.5893 41.2143 96.2137 40.7848 95.9173C39.8876 95.298 39.3418 94.4279 39.1474 93.3067C39.1422 93.2761 39.1457 93.2445 39.1575 93.2157C39.1692 93.1869 39.1888 93.1619 39.2139 93.1436C39.2391 93.1252 39.2688 93.1143 39.2998 93.1119C39.3308 93.1095 39.3619 93.1158 39.3896 93.13C40.3556 93.6454 40.9991 94.4423 41.3201 95.5208C41.4112 95.8367 41.5682 96.1111 41.7911 96.3441C41.8976 96.4563 41.9709 96.4379 42.011 96.2889C42.351 95.0221 42.7179 93.7963 43.1119 92.6115C43.3173 91.9981 43.4551 92.0135 43.5251 92.658C43.6337 93.6708 43.6451 94.6398 43.5592 95.565C43.5441 95.7241 43.6048 95.7643 43.7416 95.6856C44.5619 95.2246 45.4491 95.0428 46.4031 95.1403C46.4279 95.143 46.4516 95.1525 46.4715 95.1677C46.4913 95.1829 46.5065 95.2032 46.5153 95.2264C46.5241 95.2495 46.5262 95.2744 46.5213 95.2984C46.5164 95.3224 46.5048 95.3445 46.4876 95.362C45.6219 96.2891 44.5851 96.9239 43.3774 97.2663C43.3117 97.2855 43.2516 97.32 43.2023 97.3671C43.1529 97.4142 43.1158 97.4725 43.0939 97.5369C42.7079 98.6802 42.2253 99.7722 41.6462 100.813C41.4277 101.205 41.4986 101.267 41.8589 100.999C42.6374 100.421 43.4999 100.041 44.4464 99.8582C44.4871 99.8508 44.5291 99.8555 44.5672 99.8718C44.6052 99.888 44.6377 99.9151 44.6605 99.9496C44.6833 99.9842 44.6954 100.025 44.6954 100.066C44.6954 100.107 44.6832 100.148 44.6603 100.182C43.9022 101.318 42.8247 102.17 41.4279 102.737C41.2462 102.811 41.0724 102.896 40.9064 102.992C40.8575 103.02 40.8151 103.057 40.7822 103.103C40.7493 103.149 40.7266 103.201 40.7158 103.257C40.6256 103.756 40.4644 104.232 40.2322 104.685C40.1455 104.856 40.1932 104.912 40.3752 104.853C41.4245 104.511 42.4795 104.552 43.5306 104.859C43.5543 104.866 43.5756 104.88 43.5922 104.898C43.6087 104.917 43.6198 104.939 43.6242 104.964C43.6286 104.988 43.6261 105.013 43.6171 105.036C43.608 105.059 43.5928 105.079 43.573 105.094C42.4069 105.958 41.1108 106.276 39.6849 106.048C39.5635 106.028 39.4634 106.066 39.3847 106.161L38.585 107.137C38.5148 107.223 38.5177 107.307 38.5939 107.389C40.3061 109.242 41.8643 111.419 42.7342 113.767C42.994 114.474 43.1418 115.244 43.2799 115.979C43.3126 116.169 43.3772 116.181 43.4735 116.014C46.8004 110.157 49.9674 104.286 52.9746 98.4019C54.4604 95.4929 55.8458 92.5176 57.1306 89.476C57.1433 89.4465 57.1495 89.4146 57.1488 89.3825C57.1482 89.3504 57.1407 89.3189 57.1269 89.2902C57.1131 89.2614 57.0933 89.236 57.0689 89.2158C57.0444 89.1955 57.0159 89.1809 56.9852 89.1728C54.2085 88.4259 51.5838 87.267 49.1109 85.6962C49.0112 85.6336 48.9231 85.6471 48.8467 85.7368C48.2273 86.4576 47.4747 87.0632 46.5889 87.5536C46.0234 87.8676 45.678 88.5317 45.4845 89.1266C45.2214 89.9378 44.7681 90.6398 44.1245 91.2326C43.8754 91.4623 43.6256 91.4451 43.3752 91.1809C43.2921 91.0937 43.2769 90.9961 43.3295 90.8879C43.6466 90.2358 43.8687 89.5453 44.4699 89.085C44.7667 88.8589 45.0425 88.6154 45.2975 88.3545C45.5008 88.1442 45.4575 88.0609 45.1675 88.1044L42.2948 88.5342C42.1361 88.5571 41.9879 88.6269 41.8692 88.7347C41.7504 88.8424 41.6666 88.9832 41.6285 89.139C41.3731 90.1632 40.8325 91.0397 40.0067 91.7687C39.9226 91.8441 39.8264 91.8666 39.7181 91.8363C39.5795 91.7981 39.4622 91.7239 39.3661 91.6136C39.3029 91.5434 39.2872 91.4634 39.3191 91.3736C39.7343 90.2053 40.4313 89.5493 41.3115 88.7798C41.5814 88.5429 41.5371 88.4178 41.1785 88.4046C40.3718 88.3733 39.5511 88.3631 38.7162 88.374C38.5113 88.3783 38.3866 88.4797 38.3421 88.6783C38.3038 88.8504 38.2408 89.0146 38.153 89.1712C37.5519 90.2387 36.5874 90.7777 35.2594 90.788C35.2317 90.7883 35.2045 90.7805 35.1811 90.7657C35.1578 90.7508 35.1392 90.7295 35.1278 90.7043C35.1163 90.6791 35.1124 90.6511 35.1166 90.6237C35.1208 90.5963 35.1328 90.5707 35.1513 90.5501C35.8316 89.7891 36.6132 89.1751 37.4962 88.7082C37.8774 88.505 37.8533 88.4239 37.4238 88.4646C35.7821 88.6161 34.1589 88.1745 32.5544 87.1399C32.2568 86.9482 32.2854 86.8582 32.6401 86.8698C34.0505 86.9151 35.4341 87.1125 36.7909 87.4621C36.9502 87.5042 36.9871 87.4543 36.9015 87.3126Z" fill="#A3B18A"/>
<path d="M59.3855 45.8834C59.6544 45.1459 60.0675 44.4746 60.6246 43.8692C60.6457 43.8467 60.6728 43.8305 60.7026 43.8226C60.7324 43.8147 60.7639 43.8154 60.7934 43.8245C60.8229 43.8336 60.8492 43.8509 60.8694 43.8742C60.8896 43.8976 60.9027 43.9262 60.9074 43.9567C61.1132 45.453 60.7873 46.6407 59.9297 47.5198C59.7091 47.7454 59.7125 47.9689 59.9401 48.1903L61.7638 49.9587C61.7813 49.9751 61.8028 49.9868 61.8261 49.9925C61.8495 49.9983 61.8739 49.9979 61.8971 49.9914C61.9202 49.9849 61.9413 49.9726 61.9583 49.9556C61.9753 49.9386 61.9876 49.9175 61.9941 49.8943C62.2957 48.7058 62.8614 47.6485 63.691 46.7224C63.7065 46.7057 63.7264 46.6937 63.7484 46.6878C63.7704 46.6819 63.7937 46.6823 63.8154 46.689C63.8372 46.6957 63.8566 46.7084 63.8715 46.7257C63.8864 46.7429 63.8961 46.764 63.8995 46.7865C64.07 48.138 63.7219 49.4138 63.043 50.6464C62.9707 50.7757 62.9888 50.8912 63.0972 50.9931L65.3347 53.1296C65.6875 53.4663 65.6235 53.5945 65.1425 53.514C64.0481 53.333 63.006 52.8069 62.0163 51.936C61.5174 51.4966 60.2569 51.5331 59.6181 51.5395C58.5855 51.5509 57.6679 50.8218 57.0501 50.0799C57.0288 50.0541 57.0155 50.0226 57.0116 49.9893C57.0078 49.9561 57.0136 49.9225 57.0285 49.8928C57.0433 49.8631 57.0665 49.8386 57.0952 49.8223C57.1238 49.8061 57.1566 49.7988 57.1895 49.8013C58.2746 49.8782 59.2548 50.2564 60.1299 50.9359C60.3645 51.1178 60.6292 51.2114 60.924 51.2166C60.954 51.2175 60.9835 51.2101 61.0095 51.1951C61.0355 51.1802 61.0569 51.1582 61.0714 51.1317C61.0859 51.1052 61.093 51.0751 61.0919 51.0446C61.0907 51.0141 61.0814 50.9845 61.065 50.9588C60.5137 50.1132 60.0401 49.2521 59.6442 48.3755C59.5256 48.111 59.3297 47.9191 59.0564 47.7998C58.2851 47.4658 57.5846 47.329 56.9552 47.3894C56.1605 47.4667 55.3587 47.0892 54.8163 46.5418C54.7962 46.5216 54.7817 46.4963 54.7745 46.4686C54.7673 46.441 54.7676 46.4119 54.7753 46.3843C54.783 46.3568 54.7979 46.3318 54.8185 46.3119C54.839 46.292 54.8645 46.278 54.8923 46.2711C55.9059 46.0222 56.7715 46.1755 57.4891 46.7311C57.7456 46.9252 58.0192 47.0022 58.3221 47.0811C58.3559 47.0902 58.3917 47.0884 58.4244 47.0761C58.4571 47.0638 58.4852 47.0416 58.5047 47.0126C58.5242 46.9836 58.5341 46.9492 58.533 46.9142C58.532 46.8793 58.5201 46.8455 58.4989 46.8177C57.7675 45.8212 57.5112 44.6572 57.73 43.3257C57.7763 43.0453 57.8715 43.028 58.0156 43.2737C58.492 44.0779 58.8831 44.947 59.1889 45.8809C59.2516 46.0737 59.3172 46.0745 59.3855 45.8834Z" fill="#A3B18A"/>
</svg>
